{"glyphs":{":":{"x_min":0,"x_max":287,"ha":287,"o":"m 251 406 q 251 361 220 330 q 188 298 143 298 q 99 298 68 330 q 36 361 36 406 q 36 451 67 482 q 98 513 143 513 q 187 513 219 482 q 251 451 251 406 z m 251 103 q 251 59 219 27 q 187 -5 143 -5 q 99 -5 68 26 q 36 58 36 103 q 36 147 68 178 q 99 210 143 210 q 188 210 220 178 q 251 147 251 103 z m 69 405 q 69 375 91 353 q 113 331 143 331 q 174 331 196 353 q 218 375 218 405 q 218 437 196 458 q 175 480 143 480 q 111 480 90 459 q 69 438 69 405 z m 69 103 q 69 72 90 50 q 111 28 143 28 q 175 28 196 50 q 218 71 218 103 q 218 134 196 156 q 175 177 143 177 q 112 177 90 156 q 69 134 69 103 z m 184 406 q 184 389 172 377 q 160 365 143 365 q 126 365 114 376 q 103 388 103 406 q 103 423 114 435 q 125 447 143 447 q 160 447 172 435 q 184 423 184 406 z m 184 103 q 184 86 172 74 q 160 62 143 62 q 126 62 114 74 q 103 85 103 103 q 103 120 114 132 q 125 144 143 144 q 160 144 172 132 q 184 120 184 103 z"},"$":{"x_min":0,"x_max":552,"ha":552,"o":"m 273 733 q 305 733 330 716 q 355 699 366 668 q 423 650 457 622 q 501 585 501 533 q 501 491 473 461 q 445 431 402 431 q 377 431 351 444 q 271 483 269 484 l 254 473 l 260 462 q 347 420 434 379 q 521 323 521 213 q 521 143 480 85 q 439 27 372 1 q 372 -42 344 -71 q 316 -100 273 -100 q 230 -100 202 -72 q 173 -45 173 -2 q 110 19 72 55 q 25 99 25 158 q 25 200 54 228 q 83 256 125 256 q 154 256 183 237 q 264 183 272 181 l 292 187 l 300 201 l 293 215 q 208 255 124 296 q 42 350 42 459 q 42 527 78 583 q 115 639 178 664 q 188 695 214 714 q 240 733 273 733 z m 76 459 q 76 373 142 324 q 170 303 266 264 q 334 236 334 204 q 334 180 316 166 q 297 153 273 153 q 241 153 211 175 q 144 224 128 224 q 100 224 79 205 q 58 186 58 157 q 58 107 109 68 q 151 35 207 24 q 207 -16 219 -38 q 235 -67 273 -67 q 312 -67 328 -39 q 334 -6 340 27 q 395 61 450 96 q 487 137 487 213 q 487 300 418 350 q 391 369 290 411 q 221 439 221 472 q 221 491 235 503 q 249 515 269 515 q 288 515 352 480 q 381 464 403 464 q 430 464 450 484 q 469 505 469 533 q 469 576 423 608 q 388 632 338 645 q 334 669 316 684 q 298 700 273 700 q 247 700 230 684 q 212 669 208 642 q 148 629 112 576 q 76 522 76 459 z m 273 667 q 281 667 285 665 q 289 663 299 656 q 307 635 307 616 q 345 612 386 591 q 436 565 436 533 l 427 509 l 404 499 q 400 500 323 536 q 293 550 271 550 q 237 550 212 528 q 188 507 188 473 q 188 421 257 389 q 321 361 385 333 q 455 290 455 213 q 455 139 412 105 q 397 93 307 54 q 308 37 308 27 q 308 -8 299 -20 q 290 -33 273 -33 q 253 -33 246 -18 q 239 -2 239 23 q 239 31 239 38 q 239 46 240 53 q 189 59 147 82 q 91 113 91 156 l 101 181 q 107 185 114 188 q 120 191 127 191 q 136 191 179 156 q 222 121 271 121 q 310 121 338 144 q 367 167 367 206 q 367 256 303 284 q 239 313 177 340 q 109 382 109 459 q 109 520 144 562 q 179 604 240 615 q 240 638 246 652 q 253 667 273 667 z"},"?":{"x_min":0,"x_max":511,"ha":511,"o":"m 271 232 q 222 232 190 256 q 154 283 154 330 q 154 377 190 399 q 226 416 263 434 l 272 454 l 265 472 l 248 479 q 231 473 194 438 q 164 410 124 410 q 82 410 54 440 q 27 469 27 512 q 27 589 101 642 q 168 690 250 690 q 349 690 416 622 q 484 555 484 455 q 484 365 422 298 q 361 232 271 232 z m 360 103 q 360 59 328 27 q 296 -5 252 -5 q 208 -5 176 26 q 145 58 145 103 q 145 148 176 179 q 207 210 252 210 q 296 210 328 179 q 360 148 360 103 z m 250 656 q 184 656 126 618 q 60 574 60 511 q 60 482 78 462 q 95 443 124 443 q 150 443 200 490 q 224 513 248 513 q 271 513 288 495 q 305 477 305 454 q 305 411 246 390 q 187 369 187 330 q 187 297 213 280 q 235 266 270 266 q 346 266 398 322 q 451 378 451 455 q 451 540 393 598 q 335 656 250 656 z m 178 103 q 178 71 200 50 q 221 28 252 28 q 283 28 304 50 q 326 71 326 103 q 326 134 304 156 q 283 177 252 177 q 221 177 200 156 q 178 134 178 103 z m 271 299 q 243 299 232 307 q 221 315 221 330 q 221 339 280 368 q 338 396 338 454 q 338 492 312 519 q 286 546 247 546 q 210 546 174 512 q 139 477 125 477 q 111 477 102 487 q 93 497 93 511 q 93 559 149 593 q 198 623 250 623 q 322 623 370 575 q 418 527 418 455 q 418 392 376 346 q 333 299 271 299 z m 293 103 q 293 86 281 74 q 269 62 252 62 q 235 62 223 74 q 211 86 211 103 q 211 120 223 132 q 235 144 252 144 q 269 144 281 132 q 293 120 293 103 z"},"<":{"x_min":0,"x_max":500,"ha":500,"o":"m 415 229 q 440 217 451 201 q 465 181 463 157 q 463 128 442 106 q 420 84 391 85 q 365 87 293 121 q 248 143 162 191 q 77 239 69 243 q 46 254 34 271 q 22 288 23 314 q 24 340 36 356 q 48 371 74 383 q 169 427 238 457 q 370 517 408 515 q 437 514 457 491 q 477 468 474 439 q 474 415 460 398 q 445 380 420 370 l 253 305 z m 411 389 q 429 397 440 410 q 451 422 452 439 q 453 461 440 477 q 427 493 406 494 q 387 494 313 465 q 261 443 177 405 q 130 384 82 363 q 65 354 55 343 q 45 332 45 313 q 44 295 53 282 q 62 270 79 263 q 169 213 236 177 q 366 108 392 107 q 411 106 426 121 q 441 136 442 157 q 444 174 434 187 q 424 200 405 209 l 196 307 z m 396 189 q 405 185 410 180 q 421 172 419 159 q 418 128 392 128 q 377 130 243 199 q 208 217 87 283 q 77 289 71 295 q 65 301 65 312 q 65 322 72 330 q 78 337 88 341 q 98 345 180 381 q 273 422 319 441 q 395 472 405 472 q 417 471 424 462 q 431 453 430 440 q 429 430 422 423 q 415 416 404 411 l 140 309 z"},"'":{"x_min":0,"x_max":287,"ha":287,"o":"m 143 682 q 183 682 212 655 q 241 628 241 589 q 241 554 206 480 q 171 405 144 405 q 116 405 81 478 q 46 552 46 589 q 46 630 74 656 q 102 682 143 682 z m 208 589 q 208 616 189 632 q 170 648 143 648 q 117 648 98 632 q 79 616 79 589 q 79 564 104 508 q 130 452 144 444 q 156 452 182 508 q 208 565 208 589 z m 143 615 q 157 615 166 608 q 174 600 174 586 q 174 573 162 544 q 150 516 144 516 q 138 516 125 545 q 112 574 112 587 q 112 599 121 607 q 130 615 143 615 z"},"=":{"x_min":0,"x_max":531,"ha":531,"o":"m 22 204 q 22 245 51 265 q 76 284 118 284 l 415 284 q 455 284 481 265 q 510 245 510 204 q 510 164 482 143 q 456 126 415 126 l 118 126 q 75 126 51 143 q 22 163 22 204 z m 46 204 q 46 174 68 160 q 87 150 118 150 l 414 150 q 447 150 463 159 q 486 173 486 204 q 486 236 466 248 q 447 260 414 260 l 118 260 q 86 260 68 249 q 46 235 46 204 z m 71 204 q 71 224 84 230 q 96 236 118 236 l 415 236 q 442 236 452 228 q 462 219 462 204 q 462 186 447 178 q 436 173 415 173 l 118 173 q 90 173 80 181 q 71 189 71 204 z m 22 398 q 22 439 51 460 q 76 478 118 478 l 415 478 q 455 478 481 460 q 510 439 510 398 q 510 358 482 338 q 456 320 415 320 l 118 320 q 75 320 51 337 q 22 358 22 398 z m 46 398 q 46 368 68 354 q 87 344 118 344 l 414 344 q 447 344 463 354 q 486 367 486 398 q 486 430 466 442 q 447 454 414 454 l 118 454 q 86 454 68 444 q 46 429 46 398 z m 71 398 q 71 418 84 424 q 96 430 118 430 l 415 430 q 442 430 452 422 q 462 413 462 398 q 462 380 447 373 q 436 367 415 367 l 118 367 q 90 367 80 375 q 71 383 71 398 z"},"a":{"x_min":0,"x_max":548,"ha":548,"o":"m 210 103 q 180 40 172 28 q 144 -11 102 -11 q 67 -11 40 14 q 13 39 13 75 q 13 109 52 197 q 79 257 130 357 q 186 466 188 470 q 202 498 222 514 q 243 530 273 530 q 304 530 324 515 q 344 500 358 470 q 367 452 415 358 q 474 243 494 198 q 533 109 533 75 q 533 39 507 14 q 481 -11 445 -11 q 403 -11 375 27 q 366 40 336 103 z m 445 16 q 469 16 488 34 q 506 51 506 75 q 506 100 466 189 q 436 256 388 351 q 335 456 334 458 q 323 481 311 491 q 296 504 273 504 q 251 504 237 492 q 223 480 213 458 q 151 334 89 210 q 40 104 40 75 q 40 51 58 34 q 77 16 102 16 q 141 16 170 77 q 187 116 193 129 l 353 129 q 369 94 385 59 q 410 16 445 16 z m 176 156 q 158 108 151 95 q 125 43 102 43 q 88 43 78 52 q 67 62 67 75 q 67 90 107 178 q 139 249 185 343 q 211 395 237 447 q 243 462 251 470 q 259 477 273 477 q 286 477 296 468 q 303 462 311 444 q 319 427 360 343 q 426 207 439 179 q 480 89 480 75 q 480 61 469 52 q 458 43 444 43 q 422 43 396 95 q 373 150 370 156 z m 340 220 l 273 362 l 207 220 z m 273 299 l 298 246 l 249 246 z"},"L":{"x_min":0,"x_max":542,"ha":542,"o":"m 524 106 q 524 51 486 24 q 452 0 396 0 l 190 0 q 118 0 85 32 q 52 64 52 136 l 52 539 q 52 596 77 631 q 106 671 162 671 q 219 671 247 630 q 271 594 271 535 l 271 213 q 281 213 311 214 q 341 215 359 215 q 433 215 471 197 q 524 172 524 106 z m 238 535 q 238 581 224 606 q 206 638 162 638 q 118 638 99 606 q 85 582 85 535 l 85 136 q 85 78 108 56 q 132 33 191 33 l 395 33 q 438 33 461 47 q 491 65 491 106 q 491 152 447 171 q 412 186 350 186 q 316 186 292 184 q 269 182 238 180 z m 392 146 q 423 146 440 140 q 458 133 458 106 q 458 77 428 70 q 414 67 395 67 l 191 67 q 146 67 132 80 q 118 92 118 136 l 118 538 q 118 568 126 586 q 135 605 162 605 q 190 605 199 582 q 205 567 205 535 l 205 146 z"},"3":{"x_min":0,"x_max":527,"ha":527,"o":"m 494 227 q 494 124 424 53 q 354 -18 251 -18 q 163 -18 91 36 q 13 95 13 180 q 13 224 45 256 q 77 288 122 288 q 169 288 200 249 q 237 202 251 198 l 270 206 l 278 226 q 271 248 230 277 q 194 302 194 342 q 194 380 229 403 q 271 430 276 448 l 269 465 l 251 471 q 231 466 198 430 q 166 395 124 395 q 79 395 48 425 q 17 455 17 500 q 17 578 93 634 q 163 685 244 685 q 344 685 414 618 q 485 550 485 450 q 485 396 457 345 q 475 321 484 290 q 494 259 494 227 z m 452 450 q 452 536 392 594 q 331 651 244 651 q 176 651 117 611 q 50 565 50 500 q 50 470 71 449 q 92 428 124 428 q 152 428 175 452 q 226 504 251 504 q 275 504 292 488 q 310 473 310 448 q 310 415 269 390 q 228 365 228 342 q 228 316 270 288 q 311 261 311 226 q 311 201 294 182 q 276 164 251 164 q 224 164 175 226 q 152 255 122 255 q 91 255 69 233 q 47 211 47 179 q 47 109 115 60 q 176 16 251 16 q 340 16 400 77 q 460 138 460 227 q 460 292 417 342 q 452 395 452 450 z m 427 227 q 427 152 376 100 q 326 49 251 49 q 192 49 140 83 q 80 122 80 178 q 80 195 91 208 q 102 221 120 221 q 136 221 171 176 q 206 131 251 131 q 289 131 317 159 q 345 187 345 226 q 345 273 306 303 q 262 337 261 340 l 264 348 q 313 380 319 386 q 343 409 343 448 q 343 487 316 512 q 290 538 251 538 q 207 538 172 500 q 138 461 123 461 q 105 461 94 472 q 83 483 83 500 q 83 550 140 586 q 190 618 244 618 q 317 618 368 571 q 419 524 419 451 q 419 419 406 392 q 394 365 370 341 q 427 299 427 227 z"},";":{"x_min":0,"x_max":287,"ha":287,"o":"m 251 406 q 251 361 220 330 q 188 298 144 298 q 100 298 68 330 q 36 362 36 406 q 36 451 67 482 q 98 513 144 513 q 189 513 220 482 q 251 451 251 406 z m 36 104 q 36 150 66 180 q 96 210 143 210 q 188 210 220 180 q 251 151 251 106 q 251 54 216 -5 q 176 -72 127 -72 q 92 -72 67 -50 q 42 -29 42 5 q 42 26 53 45 q 36 73 36 104 z m 69 405 q 69 375 91 353 q 113 331 144 331 q 174 331 196 353 q 218 375 218 405 q 218 437 196 458 q 175 480 144 480 q 112 480 90 458 q 69 437 69 405 z m 76 5 q 76 -15 91 -27 q 106 -39 127 -39 q 159 -39 190 19 q 218 71 218 106 q 218 137 196 157 q 174 177 143 177 q 111 177 90 157 q 69 137 69 104 q 69 88 74 76 q 79 63 91 46 q 85 38 80 26 q 76 15 76 5 z m 185 406 q 185 389 173 377 q 161 365 144 365 q 127 365 115 377 q 103 389 103 406 q 103 423 115 435 q 127 447 144 447 q 161 447 173 435 q 185 423 185 406 z m 103 104 q 103 121 114 133 q 125 145 143 145 q 161 145 173 135 q 185 125 185 106 q 185 84 163 38 q 141 -7 125 -7 q 107 -7 107 10 q 107 18 117 39 q 124 53 131 67 q 103 77 103 104 z"},"J":{"x_min":0,"x_max":587,"ha":587,"o":"m 542 535 l 542 272 q 542 144 477 68 q 407 -13 280 -13 q 148 -13 81 70 q 19 146 19 278 q 19 338 42 372 q 70 413 128 413 q 221 413 235 308 q 249 203 280 203 q 286 203 294 206 q 302 209 305 210 q 316 223 320 248 q 325 272 325 309 q 325 326 322 392 q 318 457 318 490 q 318 575 339 617 q 366 671 432 671 q 490 671 518 630 q 542 595 542 535 z m 509 535 q 509 582 495 606 q 477 638 432 638 q 385 638 368 600 q 350 563 350 495 q 350 460 352 425 q 358 320 358 307 q 358 240 344 209 q 326 169 280 169 q 212 169 205 274 q 198 380 128 380 q 85 380 68 353 q 52 326 52 280 q 52 160 104 94 q 162 20 280 20 q 396 20 455 94 q 509 162 509 278 z m 476 535 l 476 273 q 476 172 430 115 q 380 53 280 53 q 178 53 129 117 q 85 174 85 279 q 85 319 96 333 q 106 347 128 347 q 163 347 175 242 q 187 136 280 136 q 346 136 372 193 q 392 237 392 327 q 392 352 388 415 q 385 478 385 505 q 385 556 394 580 q 404 605 432 605 q 459 605 469 582 q 476 566 476 535 z"},"V":{"x_min":0,"x_max":685,"ha":685,"o":"m 450 593 q 466 629 492 650 q 519 671 556 671 q 602 671 635 640 q 668 609 668 564 q 668 523 620 414 q 588 340 523 214 q 450 72 449 69 q 432 33 406 14 q 381 -5 343 -5 q 305 -5 280 14 q 254 33 236 69 q 229 85 164 210 q 100 336 66 413 q 17 524 17 565 q 17 609 51 640 q 85 671 129 671 q 166 671 193 650 q 220 629 235 593 l 343 343 z m 205 580 q 193 606 174 622 q 156 638 129 638 q 98 638 74 617 q 50 596 50 565 q 50 536 99 427 q 142 331 196 223 q 231 153 267 83 q 279 56 297 42 q 315 28 343 28 q 370 28 388 42 q 406 57 418 83 q 453 153 488 223 q 543 333 585 427 q 635 538 635 564 q 635 595 612 616 q 588 638 557 638 q 531 638 511 622 q 491 606 480 580 l 343 258 z m 511 567 q 519 585 527 593 q 539 604 556 604 q 575 604 588 594 q 602 583 602 564 q 602 548 552 438 q 530 390 453 231 q 420 163 387 95 q 380 80 369 70 q 358 61 343 61 q 328 61 317 70 q 306 80 298 95 q 221 254 145 413 q 83 547 83 565 q 83 582 97 593 q 111 604 129 604 q 145 604 156 594 q 167 584 174 567 l 343 173 z"},"\"":{"x_min":0,"x_max":515,"ha":515,"o":"m 143 682 q 183 682 212 655 q 241 628 241 589 q 241 554 206 480 q 171 405 144 405 q 116 405 81 478 q 46 552 46 589 q 46 630 74 656 q 102 682 143 682 z m 371 682 q 411 682 440 655 q 469 628 469 589 q 469 554 434 480 q 399 405 372 405 q 344 405 309 478 q 274 552 274 589 q 274 629 302 656 q 331 682 371 682 z m 208 589 q 208 616 189 632 q 170 648 143 648 q 117 648 98 632 q 79 616 79 589 q 79 564 104 508 q 130 452 144 444 q 156 452 182 508 q 208 565 208 589 z m 436 589 q 436 616 417 632 q 398 648 371 648 q 346 648 326 632 q 307 615 307 589 q 307 564 333 508 q 359 453 372 444 q 384 452 410 508 q 436 565 436 589 z m 143 615 q 157 615 166 608 q 174 600 174 586 q 174 573 162 544 q 150 516 144 516 q 138 516 125 545 q 112 574 112 587 q 112 599 121 607 q 130 615 143 615 z m 371 615 q 385 615 394 608 q 402 600 402 586 q 402 573 390 544 q 378 516 372 516 q 366 516 353 545 q 340 574 340 587 q 340 599 349 607 q 358 615 371 615 z"},"7":{"x_min":0,"x_max":485,"ha":485,"o":"m -13 562 q -13 617 26 644 q 60 667 117 667 l 323 667 q 383 667 418 643 q 460 614 460 557 q 460 511 429 413 q 412 359 364 236 q 317 114 314 105 q 297 54 274 29 q 243 -5 197 -5 q 151 -5 119 24 q 87 53 87 99 q 87 159 137 284 q 173 370 210 456 q 194 456 178 456 q 161 455 144 455 q 51 455 16 485 q -13 510 -13 562 z m 121 99 q 121 67 142 48 q 164 28 197 28 q 229 28 251 54 q 269 74 281 110 q 285 123 328 235 q 376 362 394 417 q 427 519 427 557 q 427 599 394 618 q 368 633 323 633 l 117 633 q 73 633 50 620 q 20 603 20 562 q 20 517 63 498 q 97 483 157 483 q 185 483 210 484 q 236 486 258 488 q 211 378 180 299 q 121 149 121 99 z m 118 522 q 87 522 75 527 q 53 536 53 562 q 53 591 76 596 q 99 600 117 600 l 323 600 q 353 600 369 593 q 394 582 394 557 q 394 525 361 425 q 335 347 296 243 q 272 182 249 121 q 242 101 237 91 q 222 61 196 61 q 179 61 166 72 q 154 82 154 99 q 154 128 188 224 q 209 283 256 399 q 281 460 306 522 z"},"S":{"x_min":0,"x_max":555,"ha":555,"o":"m 408 431 q 383 431 356 444 q 275 484 273 484 l 259 473 l 265 462 q 352 420 439 379 q 525 324 525 213 q 525 110 450 46 q 379 -15 274 -15 q 186 -15 115 26 q 30 75 30 158 q 30 199 60 228 q 89 256 131 256 q 161 256 189 237 q 269 183 277 181 l 298 187 l 306 201 l 299 215 q 214 255 130 296 q 47 350 47 459 q 47 559 114 620 q 181 681 282 681 q 359 681 426 646 q 507 603 507 532 q 507 491 478 461 q 449 431 408 431 z m 282 651 q 194 651 138 599 q 81 547 81 459 q 81 372 147 323 q 173 304 271 264 q 339 236 339 204 q 339 180 320 166 q 302 153 277 153 q 241 153 198 188 q 156 224 132 224 q 104 224 83 205 q 62 186 62 157 q 62 92 138 52 q 202 18 273 18 q 364 18 426 69 q 492 124 492 213 q 492 300 423 350 q 396 369 295 411 q 226 439 226 472 q 226 491 240 503 q 254 515 273 515 q 293 515 358 480 q 388 464 408 464 q 435 464 454 484 q 473 504 473 532 q 473 588 403 622 q 344 651 282 651 z m 282 618 q 329 618 378 598 q 440 573 440 533 q 440 519 431 509 q 422 499 408 499 q 399 499 332 534 q 301 550 275 550 q 241 550 216 528 q 192 507 192 473 q 192 421 261 389 q 325 361 389 333 q 458 290 458 213 q 458 137 404 94 q 351 51 273 51 q 216 51 163 75 q 95 106 95 156 q 95 172 106 182 q 116 191 131 191 q 140 191 182 156 q 224 121 275 121 q 314 121 342 144 q 371 167 371 206 q 371 257 307 286 q 243 314 181 341 q 114 383 114 458 q 114 532 161 575 q 208 618 282 618 z"},"}":{"x_min":0,"x_max":500,"ha":500,"o":"m 185 616 q 205 615 212 606 q 220 598 219 586 l 219 469 q 220 408 233 375 q 238 362 249 350 q 260 337 275 323 q 260 312 250 300 q 239 289 234 279 q 222 252 220 186 l 220 90 q 218 66 213 55 q 206 50 190 47 l 142 44 q 80 41 83 -14 q 84 -66 150 -64 l 199 -60 q 231 -57 254 -48 q 278 -38 294 -23 q 326 9 328 89 l 328 186 q 328 217 339 234 q 349 252 374 261 q 427 281 427 322 q 427 371 375 385 l 376 385 q 352 393 341 410 l 342 408 q 331 432 329 469 l 329 585 q 328 643 299 681 q 273 713 197 724 q 186 725 172 726 q 158 727 147 727 q 120 729 103 718 q 86 708 81 684 q 75 626 135 619 z m 137 644 q 104 647 106 677 q 112 706 145 703 l 194 699 q 258 692 278 666 q 301 636 303 585 l 303 469 q 304 425 320 397 q 335 373 368 362 q 402 353 402 322 q 402 297 368 283 q 333 274 318 247 q 302 222 302 186 l 302 90 q 301 20 276 -6 q 250 -29 196 -37 l 149 -39 q 110 -40 108 -13 q 107 18 144 20 l 192 23 q 223 26 234 41 q 244 55 245 90 l 245 186 q 246 244 257 269 q 269 293 318 322 q 267 357 256 384 q 246 411 245 469 l 245 585 q 245 608 232 622 q 219 638 187 641 z m 132 592 q 45 601 54 687 q 60 725 84 741 q 109 757 149 754 q 156 754 162 754 q 167 753 173 752 q 180 751 187 751 q 194 751 200 750 q 242 745 273 730 q 304 716 321 696 q 338 674 347 646 q 356 618 357 585 l 357 469 q 357 440 366 422 l 365 424 q 371 416 383 411 q 418 401 436 378 q 455 355 455 322 q 455 291 437 270 q 419 250 383 235 q 369 231 362 219 q 356 210 356 186 l 356 89 q 354 -4 313 -42 q 294 -60 266 -72 q 238 -83 201 -87 l 151 -91 q 57 -93 55 -15 q 52 67 141 71 l 186 73 l 190 73 l 191 74 q 192 77 192 82 q 192 87 193 92 l 193 186 q 194 220 198 246 q 201 272 209 289 q 213 297 220 307 q 227 317 235 325 q 224 336 218 346 q 212 355 207 365 q 193 402 192 468 l 192 589 q 192 590 191 591 q 193 589 182 591 l 183 591 z"},"Z":{"x_min":0,"x_max":602,"ha":602,"o":"m 23 560 q 23 615 59 640 q 95 666 151 666 l 439 666 q 494 666 527 646 q 568 621 568 568 q 568 535 512 445 q 472 381 406 291 q 376 252 347 213 q 360 213 392 214 q 423 215 424 215 q 496 215 532 197 q 582 172 582 106 q 582 51 544 24 q 510 0 454 0 l 146 0 q 92 0 61 22 q 25 47 25 100 q 25 137 79 224 q 116 283 183 372 q 214 412 245 453 q 230 453 215 452 q 200 452 185 452 q 90 452 54 482 q 23 508 23 560 z m 58 100 q 58 61 86 45 q 107 33 150 33 l 454 33 q 496 33 520 48 q 549 66 549 106 q 549 152 502 172 q 467 187 401 187 q 369 187 338 184 q 308 182 284 180 q 285 180 349 268 q 425 372 470 443 q 535 544 535 569 q 535 607 501 622 q 477 633 435 633 l 156 633 q 111 633 88 620 q 57 602 57 560 q 57 514 101 495 q 135 480 198 480 q 232 480 255 482 q 278 483 309 486 q 275 442 242 398 q 168 299 122 228 q 58 129 58 100 z m 156 520 q 125 520 112 525 q 90 534 90 560 q 90 585 108 592 q 126 600 156 600 l 439 600 q 466 600 477 597 q 501 590 501 570 q 501 552 432 448 q 387 381 300 257 q 260 201 221 146 l 450 146 q 481 146 498 140 q 516 133 516 106 q 516 82 496 73 q 482 67 454 67 l 147 67 q 120 67 110 71 q 91 78 91 100 q 91 119 162 225 q 210 296 296 416 q 334 468 372 520 z"},"x":{"x_min":0,"x_max":499,"ha":499,"o":"m 386 532 q 421 532 448 506 q 474 481 474 445 q 474 410 427 346 q 373 280 362 266 q 396 224 430 182 q 483 111 483 75 q 483 39 456 14 q 430 -12 395 -12 q 346 -12 294 59 q 273 89 252 120 q 223 79 194 39 q 151 -12 110 -12 q 74 -12 48 14 q 21 39 21 75 q 21 110 74 181 q 108 223 142 266 q 110 305 78 345 q 30 410 30 445 q 30 481 56 506 q 83 532 118 532 q 165 532 212 469 q 232 440 252 412 q 279 449 307 487 q 347 532 386 532 z m 118 505 q 93 505 74 488 q 56 470 56 445 q 56 417 111 344 q 170 272 175 266 q 141 225 108 184 q 47 104 47 75 q 47 51 66 33 q 85 15 110 15 q 144 15 195 81 q 244 154 252 164 q 291 111 330 58 q 369 15 395 15 q 420 15 438 32 q 457 50 457 75 q 457 104 397 183 q 334 259 329 266 q 360 305 392 344 q 448 418 448 445 q 448 470 430 488 q 411 505 386 505 q 355 505 307 445 q 260 379 252 368 q 225 406 198 445 q 151 505 118 505 z m 346 447 q 356 460 363 467 q 375 479 386 479 q 399 479 410 469 q 421 459 421 445 q 421 427 358 345 q 337 318 295 266 q 308 253 363 181 q 430 93 430 75 q 430 61 420 51 q 410 41 395 41 q 372 41 310 125 q 290 153 252 209 l 149 73 q 139 60 132 53 q 120 41 109 41 q 96 41 85 51 q 74 61 74 75 q 74 93 141 181 q 163 210 209 266 q 195 280 145 345 q 83 426 83 445 q 83 459 93 469 q 103 479 118 479 q 140 479 192 409 q 222 366 252 323 z"},")":{"x_min":0,"x_max":500,"ha":500,"o":"m 141 -90 q 98 -90 66 -58 q 33 -27 33 16 q 33 55 76 101 q 152 183 158 191 q 202 255 202 333 q 202 413 159 475 q 151 486 77 565 q 33 612 33 651 q 33 694 65 725 q 97 756 141 756 q 251 756 341 596 q 421 454 421 333 q 421 215 341 72 q 250 -90 141 -90 z m 141 723 q 112 723 89 702 q 66 681 66 651 q 66 626 109 581 q 171 516 191 484 q 235 414 235 333 q 235 250 192 182 q 173 152 110 87 q 66 42 66 16 q 66 -13 89 -35 q 112 -57 141 -57 q 234 -57 316 96 q 388 231 388 333 q 388 440 317 572 q 236 723 141 723 z m 141 -23 q 125 -23 112 -12 q 100 0 100 16 q 165 81 214 156 q 268 239 268 333 q 268 429 216 509 q 158 580 100 651 q 100 668 112 679 q 124 690 141 690 q 217 690 290 547 q 355 419 355 333 q 355 246 291 120 q 218 -23 141 -23 z"},"&":{"x_min":0,"x_max":611,"ha":611,"o":"m 586 95 q 586 50 556 19 q 526 -12 480 -12 q 440 -12 407 15 q 349 -17 282 -17 q 177 -17 108 52 q 38 120 38 225 q 38 260 47 290 q 56 319 78 348 q 50 401 50 455 q 50 551 120 618 q 189 684 286 684 q 369 684 439 634 q 517 579 517 499 q 517 457 488 424 q 458 392 416 392 q 376 392 344 423 q 304 462 286 468 l 268 462 l 261 446 q 267 431 309 403 q 344 380 344 340 q 344 296 302 268 q 261 241 261 225 l 269 208 l 287 201 q 314 207 358 274 q 399 337 458 337 q 500 337 532 308 q 563 278 563 235 q 563 203 547 173 q 586 144 586 95 z m 530 235 q 530 264 509 284 q 488 304 458 304 q 421 304 355 211 q 324 167 287 167 q 264 167 246 184 q 228 201 228 225 q 228 256 254 276 q 311 321 311 339 q 311 364 270 390 q 228 415 228 446 q 228 469 245 485 q 262 501 286 501 q 310 501 364 450 q 391 425 416 425 q 445 425 464 447 q 483 469 483 499 q 483 564 416 610 q 356 651 286 651 q 203 651 143 594 q 83 537 83 455 q 83 426 92 400 q 100 373 117 345 q 95 318 84 288 q 72 258 72 225 q 72 135 132 76 q 192 17 282 17 q 350 17 409 54 q 432 38 442 32 q 462 21 480 21 q 511 21 532 43 q 553 65 553 95 q 553 118 539 136 q 531 146 505 165 q 519 191 522 199 q 530 218 530 235 z m 521 95 q 521 78 510 66 q 498 55 480 55 q 462 55 433 77 q 414 93 408 97 q 355 50 282 50 q 205 50 155 99 q 105 148 105 226 q 105 300 165 342 q 117 388 117 455 q 117 524 167 570 q 217 617 287 617 q 339 617 391 585 q 450 548 450 499 q 450 483 440 470 q 431 458 415 458 q 403 458 364 496 q 326 535 286 535 q 249 535 222 509 q 195 483 195 446 q 195 411 217 387 q 247 362 278 338 q 241 314 218 289 q 195 264 195 225 q 195 187 222 160 q 248 134 287 134 q 342 134 390 202 q 437 271 457 271 q 473 271 485 261 q 497 251 497 235 q 497 217 484 194 q 478 183 458 157 q 498 129 505 122 q 521 107 521 95 z"},"_":{"x_min":0,"x_max":658,"ha":658,"o":"m 22 5 q 22 56 58 82 q 90 105 142 105 l 515 105 q 566 105 598 82 q 634 56 634 5 q 634 -45 599 -71 q 567 -93 515 -93 l 142 -93 q 89 -93 58 -72 q 22 -46 22 5 z m 52 5 q 52 -33 80 -50 q 103 -63 142 -63 l 514 -63 q 555 -63 576 -51 q 604 -34 604 5 q 604 45 580 60 q 555 75 514 75 l 142 75 q 102 75 80 62 q 52 44 52 5 z m 83 5 q 83 30 99 38 q 115 45 142 45 l 515 45 q 549 45 562 34 q 574 24 574 5 q 574 -18 555 -27 q 542 -34 515 -34 l 142 -34 q 107 -34 95 -24 q 83 -14 83 5 z"},"v":{"x_min":0,"x_max":552,"ha":552,"o":"m 363 468 q 376 498 395 513 q 418 531 448 531 q 484 531 511 506 q 538 481 538 445 q 538 414 499 325 q 475 271 420 164 q 366 58 362 49 q 349 20 329 5 q 309 -10 278 -10 q 246 -10 226 4 q 207 19 193 49 q 134 161 94 243 q 17 400 17 446 q 17 481 44 506 q 71 531 107 531 q 136 531 158 514 q 179 497 192 468 l 278 268 z m 168 457 q 159 478 144 491 q 128 504 107 504 q 81 504 62 487 q 43 470 43 445 q 43 422 82 335 q 110 273 160 173 q 188 116 217 60 q 227 38 241 27 q 255 16 278 16 q 300 16 314 28 q 329 39 338 60 q 394 170 434 253 q 512 415 512 445 q 512 470 493 487 q 474 504 449 504 q 428 504 412 492 q 397 479 388 457 l 278 200 z m 412 447 q 417 458 421 463 q 432 477 448 477 q 485 477 485 445 q 485 427 406 261 q 386 218 313 69 q 306 56 298 49 q 291 42 278 42 q 266 42 257 49 q 248 56 242 68 q 237 80 190 177 q 137 287 111 343 q 70 433 70 445 q 70 459 81 468 q 92 477 107 477 q 119 477 128 468 q 137 460 143 447 l 278 132 z"},"O":{"x_min":0,"x_max":763,"ha":763,"o":"m 730 333 q 730 189 628 87 q 526 -15 381 -15 q 237 -15 135 87 q 33 189 33 333 q 33 477 136 580 q 238 682 381 682 q 525 682 628 580 q 730 477 730 333 z m 67 333 q 67 203 159 111 q 251 19 381 19 q 510 19 603 111 q 696 203 696 333 q 696 464 604 556 q 512 648 381 648 q 251 648 159 556 q 67 464 67 333 z m 663 333 q 663 216 581 134 q 499 52 381 52 q 264 52 182 134 q 100 216 100 333 q 100 450 182 532 q 265 615 381 615 q 498 615 580 532 q 663 450 663 333 z m 187 333 q 187 253 244 196 q 300 138 381 138 q 462 138 520 196 q 577 253 577 333 q 577 414 520 471 q 463 528 381 528 q 301 528 244 471 q 187 414 187 333 z m 543 333 q 543 267 496 219 q 449 171 381 171 q 314 171 267 218 q 220 265 220 333 q 220 399 267 447 q 314 495 381 495 q 447 495 495 448 q 543 401 543 333 z m 253 333 q 253 280 290 242 q 328 205 381 205 q 434 205 472 242 q 510 279 510 333 q 510 386 472 424 q 435 461 381 461 q 328 461 290 424 q 253 386 253 333 z"},"(":{"x_min":0,"x_max":500,"ha":500,"o":"m 359 756 q 402 756 434 726 q 467 695 467 651 q 467 612 424 566 q 350 487 342 476 q 298 412 298 333 q 298 253 341 191 q 349 180 423 101 q 467 54 467 16 q 467 -28 435 -59 q 403 -90 359 -90 q 250 -90 159 71 q 78 214 78 333 q 78 453 158 595 q 249 756 359 756 z m 359 -57 q 389 -57 412 -36 q 434 -14 434 16 q 434 41 391 86 q 328 152 309 182 q 265 252 265 333 q 265 423 320 498 q 376 574 434 651 q 434 680 412 702 q 389 723 359 723 q 265 723 184 572 q 112 438 112 333 q 112 229 184 95 q 266 -57 359 -57 z m 359 690 q 375 690 388 678 q 400 667 400 651 q 334 585 285 509 q 231 426 231 333 q 231 241 284 159 q 342 87 400 16 q 400 1 387 -11 q 374 -23 359 -23 q 281 -23 209 118 q 145 244 145 333 q 145 419 209 546 q 282 690 359 690 z"},"C":{"x_min":0,"x_max":716,"ha":716,"o":"m 384 202 q 426 202 466 233 q 555 302 581 302 q 624 302 657 270 q 690 238 690 194 q 690 107 581 41 q 485 -17 391 -17 q 243 -17 138 84 q 33 185 33 333 q 33 479 137 581 q 241 683 387 683 q 483 683 579 625 q 690 558 690 468 q 690 423 658 392 q 626 361 581 361 q 540 361 506 393 q 433 463 384 463 q 329 463 292 424 q 254 386 254 331 q 254 278 292 240 q 330 202 384 202 z m 384 496 q 449 496 502 445 q 555 394 581 394 q 611 394 634 416 q 657 438 657 468 q 657 542 556 600 q 468 650 387 650 q 255 650 161 557 q 67 464 67 333 q 67 200 162 108 q 258 17 391 17 q 471 17 557 65 q 657 121 657 194 q 657 223 634 246 q 611 269 581 269 q 559 269 500 218 q 442 168 384 168 q 319 168 270 216 q 221 264 221 330 q 221 399 268 448 q 316 496 384 496 z m 384 135 q 442 135 489 166 q 536 200 584 234 q 599 234 611 221 q 623 208 623 193 q 623 137 533 90 q 456 50 391 50 q 271 50 186 132 q 100 213 100 333 q 100 449 185 533 q 270 617 387 617 q 452 617 532 575 q 624 526 624 467 q 624 451 611 439 q 598 427 582 427 q 574 427 515 478 q 456 529 390 529 q 303 529 246 472 q 188 416 188 330 q 188 250 246 192 q 303 135 384 135 z"},"W":{"x_min":0,"x_max":951,"ha":951,"o":"m 823 671 q 869 671 902 642 q 934 612 934 567 q 934 512 903 422 q 882 361 836 255 q 786 140 778 118 q 753 51 740 33 q 712 -5 659 -5 q 588 -5 536 110 q 489 244 476 278 q 446 194 416 111 q 363 -5 292 -5 q 240 -5 212 33 q 196 54 173 118 q 161 151 116 254 q 68 365 49 420 q 17 513 17 565 q 17 610 50 640 q 82 671 128 671 q 211 671 261 532 q 279 476 298 420 q 325 498 353 577 q 399 671 476 671 q 564 671 614 536 q 633 478 653 420 q 679 496 706 573 q 751 671 823 671 z m 476 639 q 427 639 385 567 q 355 517 327 425 q 312 375 298 325 q 260 437 222 550 q 178 638 128 638 q 96 638 73 618 q 50 598 50 567 q 50 521 82 429 q 103 368 150 260 q 196 151 204 129 q 225 72 232 62 q 254 28 292 28 q 332 28 379 114 q 412 174 446 276 q 461 323 476 370 q 490 323 504 276 q 537 175 570 114 q 617 28 660 28 q 698 28 719 62 q 725 71 747 129 q 803 261 837 345 q 901 503 901 567 q 901 599 878 618 q 855 638 823 638 q 762 638 706 495 q 658 342 652 325 q 614 437 577 550 q 531 639 476 639 z m 797 596 l 823 605 l 855 594 l 868 565 q 858 495 796 330 q 734 166 686 72 q 677 68 670 66 q 663 63 659 61 q 634 61 614 108 q 602 137 599 146 l 476 461 l 353 146 q 343 120 333 94 q 318 66 292 61 l 266 72 q 218 161 156 326 q 95 492 83 565 l 96 594 l 127 605 l 155 595 q 195 531 235 417 q 267 324 299 231 l 414 538 q 426 571 434 583 q 450 605 476 605 q 496 605 508 594 q 521 582 538 538 l 652 231 q 661 255 699 369 q 751 525 797 596 z"},"A":{"x_min":0,"x_max":687,"ha":687,"o":"m 265 137 q 227 57 217 43 q 182 -5 129 -5 q 84 -5 52 26 q 19 58 19 102 q 19 142 68 254 q 104 336 165 455 q 201 525 237 595 q 253 629 280 650 q 308 671 343 671 q 382 671 407 652 q 432 633 449 595 q 485 525 521 456 q 585 332 619 255 q 668 144 668 102 q 668 58 636 26 q 603 -5 558 -5 q 504 -5 470 42 q 460 56 422 137 z m 558 28 q 588 28 612 50 q 635 71 635 102 q 635 134 585 245 q 545 333 487 448 q 453 514 419 581 q 405 609 390 622 q 371 638 343 638 q 316 638 298 623 q 280 608 270 585 q 259 562 200 447 q 132 315 102 247 q 52 135 52 102 q 52 71 74 50 q 97 28 129 28 q 161 28 188 61 q 198 73 243 170 l 443 170 q 463 126 483 82 q 515 28 558 28 z m 222 203 q 199 153 177 103 q 152 62 129 62 q 112 62 98 74 q 85 85 85 102 q 85 121 135 231 q 175 319 233 437 q 265 502 298 567 q 306 585 314 593 q 326 605 343 605 q 359 605 371 594 q 380 586 389 566 q 398 547 452 437 q 529 280 551 232 q 602 121 602 102 q 602 85 588 74 q 575 62 557 62 q 530 62 497 127 q 467 196 464 203 z m 426 283 l 343 460 l 260 283 z m 343 382 l 374 316 l 312 316 z"},"f":{"x_min":0,"x_max":417,"ha":417,"o":"m 117 -11 q 71 -11 50 18 q 29 48 29 95 l 29 418 q 29 526 140 526 l 305 526 q 350 526 379 506 q 408 485 408 441 q 408 389 366 368 q 336 353 276 353 q 262 353 238 354 q 214 355 205 355 l 205 339 q 217 339 230 339 q 244 339 258 340 q 325 340 351 317 q 372 298 372 260 q 372 222 350 203 q 323 179 253 179 q 240 179 228 179 q 216 179 205 180 q 205 166 205 151 q 205 136 206 121 q 206 59 192 31 q 171 -11 117 -11 z m 345 260 q 345 293 320 304 q 294 316 251 316 q 229 316 212 315 q 194 314 178 313 l 178 382 q 192 382 222 380 q 253 377 268 377 q 319 377 345 388 q 381 403 381 441 q 381 475 360 488 q 338 500 302 500 l 143 500 q 93 500 74 482 q 56 465 56 414 l 56 95 q 56 60 70 38 q 83 16 117 16 q 154 16 170 50 q 182 76 182 123 q 182 140 180 161 q 179 182 178 206 q 190 206 218 204 q 247 203 251 203 q 293 203 315 213 q 345 227 345 260 z m 152 98 q 152 73 147 61 q 139 42 117 42 q 96 42 89 57 q 82 72 82 95 l 82 417 q 82 453 93 463 q 104 473 140 473 l 305 473 q 327 473 340 467 q 354 461 354 441 q 354 421 340 415 q 325 409 302 409 l 152 409 l 152 286 l 272 286 q 294 286 306 282 q 319 277 319 260 q 319 242 306 238 q 293 233 272 233 l 152 233 z"},"Q":{"x_min":0,"x_max":763,"ha":763,"o":"m 736 95 q 736 51 704 18 q 672 -15 627 -15 q 603 -15 582 -4 q 560 6 542 24 q 470 -15 381 -15 q 237 -15 135 87 q 33 189 33 333 q 33 477 136 580 q 238 682 381 682 q 526 682 628 580 q 730 478 730 333 q 730 304 712 252 q 695 199 695 182 q 709 168 715 158 q 736 126 736 95 z m 696 335 q 696 464 603 556 q 510 648 382 648 q 252 648 160 556 q 67 463 67 333 q 67 205 159 112 q 251 19 380 19 q 424 19 466 30 q 507 42 548 65 q 568 44 583 34 q 605 19 627 19 q 658 19 680 42 q 703 64 703 95 q 703 117 688 139 q 682 148 655 176 q 675 208 686 250 q 696 293 696 335 z m 670 95 q 670 78 657 65 q 644 52 627 52 q 608 52 577 83 q 558 103 552 109 q 519 81 472 66 q 426 52 379 52 q 264 52 182 135 q 100 218 100 333 q 100 450 182 532 q 265 615 381 615 q 496 615 580 534 q 663 452 663 336 q 663 293 650 247 q 637 201 613 170 q 630 153 647 136 q 670 110 670 95 z m 187 333 q 187 253 244 196 q 300 138 381 138 q 462 138 520 196 q 577 253 577 333 q 577 414 520 471 q 463 528 381 528 q 301 528 244 471 q 187 414 187 333 z m 543 333 q 543 266 496 219 q 449 172 381 172 q 314 172 267 219 q 220 266 220 333 q 220 399 267 447 q 314 495 381 495 q 447 495 495 448 q 543 401 543 333 z m 253 333 q 253 280 290 242 q 328 205 381 205 q 434 205 472 242 q 510 279 510 333 q 510 386 472 424 q 435 461 381 461 q 328 461 290 424 q 253 386 253 333 z"},"w":{"x_min":0,"x_max":765,"ha":765,"o":"m 663 531 q 698 531 724 506 q 751 482 751 447 q 751 387 701 263 q 663 175 626 88 q 607 35 596 20 q 574 -10 531 -10 q 466 -10 418 120 q 401 168 385 216 q 361 149 337 83 q 294 -10 238 -10 q 187 -10 164 34 q 158 46 139 88 q 95 196 68 263 q 17 389 17 445 q 17 482 44 506 q 70 531 106 531 q 173 531 213 419 q 227 374 242 329 q 264 392 286 455 q 323 531 385 531 q 445 531 482 455 q 514 362 526 329 q 547 390 569 452 q 606 531 663 531 z m 385 504 q 331 504 286 391 q 249 269 243 254 q 212 343 182 433 q 146 504 106 504 q 80 504 62 488 q 44 472 44 447 q 44 394 94 270 q 130 183 167 97 q 186 47 189 43 q 206 16 238 16 q 283 16 337 149 q 361 219 385 289 q 407 219 430 149 q 483 16 532 16 q 562 16 579 43 q 585 52 601 97 q 647 202 674 269 q 725 394 725 447 q 725 472 706 488 q 687 504 662 504 q 614 504 569 389 q 531 267 526 254 q 505 322 484 391 q 440 504 385 504 z m 642 470 l 663 477 l 688 468 l 699 446 q 691 387 641 255 q 595 133 553 51 q 542 46 531 42 q 514 42 500 69 q 487 101 483 110 l 385 362 l 286 110 q 269 65 265 60 q 255 46 238 42 l 217 51 q 180 119 130 254 q 80 388 70 445 l 81 468 l 106 477 l 128 469 q 160 418 192 327 q 218 252 244 178 l 335 424 q 348 459 358 468 q 367 478 385 478 q 405 478 418 460 q 423 452 434 424 l 526 178 q 529 186 563 289 q 603 411 642 470 z"},"-":{"x_min":0,"x_max":424,"ha":424,"o":"m 266 367 q 322 367 353 346 q 391 320 391 267 q 391 216 355 190 q 323 167 270 167 l 153 167 q 101 167 69 190 q 33 216 33 267 q 33 320 68 344 q 104 367 158 367 z m 266 201 q 306 201 328 213 q 357 229 357 267 q 357 306 329 322 q 308 334 266 334 l 158 334 q 104 334 83 314 q 67 299 67 267 q 67 229 95 213 q 117 201 158 201 z m 266 300 q 296 300 305 297 q 324 290 324 267 q 324 246 310 240 q 295 234 270 234 l 154 234 q 128 234 118 238 q 100 245 100 267 q 100 289 116 294 q 131 300 158 300 z"},"E":{"x_min":0,"x_max":550,"ha":550,"o":"m 525 106 q 525 51 487 24 q 453 0 397 0 l 190 0 q 117 0 84 32 q 52 65 52 140 l 52 527 q 52 601 84 634 q 117 666 190 666 l 397 666 q 452 666 486 642 q 525 614 525 560 q 525 495 472 469 q 435 451 359 451 q 342 451 312 452 q 282 453 271 453 l 271 433 q 287 433 304 433 q 320 433 337 434 q 402 434 435 417 q 480 394 480 333 q 480 285 452 261 q 418 232 328 232 q 313 232 298 232 q 284 232 271 233 l 271 213 q 300 213 321 214 q 342 215 361 216 q 458 216 494 185 q 525 158 525 106 z m 238 267 q 246 267 277 265 q 308 263 329 263 q 383 263 410 275 q 447 292 447 333 q 447 374 410 391 q 382 404 328 404 q 309 404 286 402 q 263 401 238 400 l 238 486 q 257 486 270 485 q 337 480 350 480 q 414 480 447 494 q 492 513 492 560 q 492 602 465 618 q 438 633 393 633 l 194 633 q 132 633 108 612 q 85 590 85 527 l 85 140 q 85 79 109 56 q 133 33 194 33 l 393 33 q 438 33 461 46 q 492 64 492 106 q 492 151 447 171 q 412 186 350 186 q 316 186 292 184 q 269 182 238 180 z m 393 146 q 423 146 436 141 q 458 132 458 106 q 458 81 442 74 q 425 67 397 67 l 191 67 q 146 67 132 80 q 118 92 118 136 l 118 530 q 118 574 132 587 q 146 600 191 600 l 396 600 q 424 600 441 592 q 458 585 458 560 q 458 535 437 526 q 422 520 393 520 l 205 520 l 205 367 l 356 367 q 383 367 398 362 q 414 356 414 333 q 414 311 395 304 q 384 300 356 300 l 205 300 l 205 146 z"},"s":{"x_min":0,"x_max":453,"ha":453,"o":"m 335 338 q 312 338 280 356 q 242 377 227 381 l 216 372 l 220 363 q 290 330 360 297 q 429 253 429 164 q 429 82 370 32 q 312 -18 228 -18 q 156 -18 100 14 q 32 53 32 120 q 32 152 56 175 q 80 198 113 198 q 136 198 159 183 q 224 140 230 138 l 247 143 l 253 154 l 247 165 q 179 197 112 230 q 46 273 46 361 q 46 441 100 490 q 153 538 234 538 q 296 538 349 510 q 414 476 414 419 q 414 386 391 362 q 368 338 335 338 z m 234 514 q 164 514 118 472 q 73 431 73 361 q 73 270 176 224 q 280 179 280 156 q 280 138 265 127 q 250 116 230 116 q 202 116 168 144 q 134 172 114 172 q 92 172 76 156 q 59 141 59 119 q 59 67 119 35 q 170 8 227 8 q 300 8 349 49 q 402 93 402 164 q 402 255 296 302 q 189 348 189 371 q 189 386 201 396 q 213 406 227 406 q 247 406 282 386 q 317 365 335 365 q 357 365 372 381 q 387 397 387 419 q 387 464 331 491 q 283 514 234 514 z m 234 488 q 271 488 310 472 q 360 452 360 420 q 360 393 335 393 q 325 393 274 419 q 246 433 228 433 q 202 433 182 416 q 162 399 162 372 q 162 327 268 284 q 375 241 375 164 q 375 104 332 69 q 289 34 227 34 q 181 34 139 53 q 85 78 85 118 q 85 130 93 138 q 101 146 114 146 q 120 146 154 118 q 188 90 228 90 q 259 90 282 109 q 305 128 305 158 q 305 202 202 243 q 100 284 100 360 q 100 420 137 454 q 174 488 234 488 z"},">":{"x_min":0,"x_max":500,"ha":500,"o":"m 245 304 l 78 369 q 53 379 38 396 q 24 414 24 438 q 21 467 41 490 q 61 513 90 514 q 128 516 260 456 q 329 426 424 382 q 450 370 462 354 q 474 339 475 313 q 476 287 464 270 q 452 253 429 242 q 421 238 336 190 q 250 142 205 120 q 133 86 107 84 q 78 83 56 105 q 35 127 35 156 q 33 180 47 200 q 58 216 83 228 z m 302 306 l 93 208 q 74 199 64 186 q 54 173 56 156 q 57 135 72 120 q 87 105 106 106 q 132 107 262 176 q 329 212 419 262 q 436 269 445 282 q 454 294 453 312 q 453 331 443 342 q 433 353 416 362 q 368 383 321 404 q 237 442 185 464 q 111 493 92 493 q 71 492 58 476 q 45 460 46 438 q 47 421 58 408 q 69 396 87 388 z m 358 308 l 94 410 q 83 415 76 422 q 69 429 68 439 q 67 452 74 461 q 81 470 93 471 q 103 471 179 440 q 225 421 318 380 q 400 344 410 340 q 420 336 426 328 q 433 321 433 311 q 433 300 427 294 q 421 288 411 282 q 290 216 255 198 q 121 129 106 127 q 80 127 79 158 q 77 171 88 179 q 93 184 102 188 z"},"l":{"x_min":0,"x_max":427,"ha":427,"o":"m 412 79 q 412 35 381 13 q 354 -6 309 -6 l 145 -6 q 87 -6 60 20 q 34 45 34 102 l 34 425 q 34 471 56 501 q 77 531 122 531 q 169 531 191 498 q 210 470 210 422 l 210 165 q 221 165 250 166 q 278 167 279 167 q 340 167 369 153 q 412 132 412 79 z m 183 422 q 183 460 172 479 q 158 504 122 504 q 88 504 74 481 q 61 458 61 422 l 61 103 q 61 57 80 38 q 98 20 145 20 l 309 20 q 344 20 362 31 q 385 45 385 79 q 385 115 349 131 q 322 143 272 143 q 247 143 224 141 q 201 139 183 138 z m 306 111 q 331 111 345 106 q 359 100 359 79 q 359 59 345 53 q 331 47 309 47 l 145 47 q 110 47 98 58 q 87 68 87 103 l 87 425 q 87 450 94 464 q 100 478 122 478 q 139 478 148 466 q 157 455 157 422 l 157 111 z"},"8":{"x_min":0,"x_max":564,"ha":564,"o":"m 44 450 q 44 546 114 614 q 185 683 282 683 q 380 683 450 616 q 521 548 521 450 q 521 387 489 340 q 507 317 516 286 q 526 256 526 224 q 526 124 454 54 q 382 -16 282 -16 q 182 -16 110 54 q 38 124 38 224 q 38 259 46 286 q 55 314 76 340 q 60 362 52 392 q 44 421 44 450 z m 489 450 q 489 533 428 591 q 367 649 284 649 q 201 649 140 591 q 79 533 79 450 q 79 419 88 390 q 98 360 117 339 q 96 319 84 286 q 73 254 73 223 q 73 137 136 77 q 199 17 284 17 q 370 17 432 77 q 494 137 494 223 q 494 256 484 287 q 473 318 451 339 q 470 360 480 389 q 489 418 489 450 z m 459 225 q 459 152 407 101 q 355 50 282 50 q 210 50 158 100 q 105 151 105 225 q 105 290 158 338 q 136 362 123 391 q 110 420 110 449 q 110 517 162 566 q 213 616 282 616 q 352 616 403 567 q 454 518 454 449 q 454 419 442 391 q 430 363 407 338 q 459 289 459 225 z m 195 451 q 195 416 221 390 q 247 364 282 364 q 317 364 343 390 q 369 416 369 451 q 369 486 343 512 q 317 538 282 538 q 247 538 221 513 q 195 488 195 451 z m 195 220 q 195 185 221 159 q 247 133 282 133 q 317 133 343 159 q 369 185 369 220 q 369 255 343 281 q 317 307 282 307 q 247 307 221 282 q 195 257 195 220 z m 335 451 q 335 429 320 413 q 305 397 282 397 q 259 397 244 413 q 229 429 229 451 q 229 474 244 489 q 259 504 282 504 q 305 504 320 489 q 335 474 335 451 z m 335 220 q 335 197 320 182 q 305 167 282 167 q 259 167 244 182 q 229 197 229 220 q 229 243 244 258 q 259 273 282 273 q 305 273 320 258 q 335 243 335 220 z m 262 451 q 262 431 282 431 q 302 431 302 451 q 302 471 282 471 q 274 471 268 465 q 262 459 262 451 z m 262 220 q 262 200 282 200 q 302 200 302 220 q 302 240 282 240 q 274 240 268 234 q 262 228 262 220 z"},"\\":{"x_min":0,"x_max":573,"ha":573,"o":"m 473 -90 q 440 -90 417 -71 q 400 -57 381 -22 q 380 -20 262 176 q 145 372 93 468 q 7 627 7 665 q 7 703 35 730 q 63 757 101 757 q 126 757 144 746 q 168 731 192 689 q 197 681 311 491 q 417 315 480 199 q 567 39 567 1 q 567 -37 540 -64 q 512 -90 473 -90 z m 534 1 q 534 25 447 183 q 394 279 277 479 q 220 576 163 673 q 150 696 139 707 q 123 723 101 723 q 77 723 58 706 q 40 688 40 665 q 40 641 127 483 q 180 387 297 187 q 353 90 410 -6 q 423 -28 435 -40 q 452 -57 473 -57 q 496 -57 515 -40 q 534 -23 534 1 z m 492 -16 l 473 -23 q 458 -17 452 -11 q 450 -9 439 10 l 88 630 l 73 665 l 82 682 l 101 690 q 115 684 120 678 q 125 673 134 656 l 485 37 q 496 21 500 1 z"},"e":{"x_min":0,"x_max":425,"ha":425,"o":"m 405 79 q 405 36 374 13 q 347 -7 302 -7 l 137 -7 q 79 -7 52 18 q 26 44 26 102 l 26 419 q 26 527 136 527 l 302 527 q 348 527 376 506 q 405 486 405 441 q 405 389 363 369 q 332 354 273 354 q 259 354 235 355 q 211 356 202 356 l 202 340 q 214 340 228 340 q 241 340 255 341 q 322 341 348 318 q 369 299 369 260 q 369 221 346 202 q 319 179 246 179 q 234 179 223 179 q 212 179 202 180 l 202 164 q 214 164 243 165 q 272 166 273 166 q 350 166 380 141 q 405 120 405 79 z m 175 207 q 187 207 216 206 q 244 204 248 204 q 290 204 312 214 q 342 227 342 260 q 342 293 316 304 q 291 316 248 316 q 226 316 208 315 q 191 314 175 313 l 175 382 q 186 382 218 380 q 251 377 263 377 q 315 377 341 388 q 378 404 378 441 q 378 475 356 488 q 335 500 299 500 l 140 500 q 90 500 72 482 q 53 465 53 415 l 53 105 q 53 56 72 38 q 91 20 140 20 l 303 20 q 338 20 355 31 q 378 46 378 79 q 378 115 342 131 q 314 143 263 143 q 239 143 216 141 q 193 139 175 138 z m 299 111 q 323 111 337 106 q 351 100 351 79 q 351 59 338 53 q 324 47 302 47 l 137 47 q 102 47 90 58 q 79 68 79 103 l 79 418 q 79 453 90 463 q 101 473 137 473 l 302 473 q 326 473 338 468 q 351 462 351 441 q 351 421 336 415 q 322 409 299 409 l 149 409 l 149 287 l 269 287 q 292 287 304 282 q 316 278 316 260 q 316 242 303 238 q 290 233 269 233 l 149 233 l 149 111 z"},"b":{"x_min":0,"x_max":462,"ha":462,"o":"m 441 175 q 441 83 377 35 q 321 -7 226 -7 l 143 -7 q 82 -7 56 18 q 29 44 29 105 l 29 415 q 29 476 56 502 q 82 527 143 527 l 213 527 q 304 527 361 489 q 429 444 429 356 q 429 312 409 272 q 425 253 433 228 q 441 202 441 175 z m 402 356 q 402 432 343 469 q 293 500 213 500 l 143 500 q 93 500 74 482 q 56 465 56 415 l 56 105 q 56 56 75 38 q 94 20 143 20 l 226 20 q 309 20 357 54 q 414 94 414 175 q 414 203 405 226 q 396 250 376 269 q 402 307 402 356 z m 388 175 q 388 106 339 74 q 297 47 225 47 l 139 47 q 104 47 93 58 q 82 69 82 105 l 82 415 q 82 453 93 463 q 104 473 143 473 l 212 473 q 285 473 324 451 q 376 422 376 353 q 376 298 337 268 q 361 255 374 230 q 388 204 388 175 z m 152 287 l 239 287 q 271 287 290 302 q 309 317 309 348 q 309 378 290 394 q 270 409 239 409 l 152 409 z m 152 111 l 245 111 q 277 111 296 126 q 316 141 316 172 q 316 202 296 218 q 276 233 245 233 l 152 233 z m 241 382 q 261 382 272 374 q 283 367 283 348 q 283 330 272 322 q 260 313 241 313 l 178 313 l 178 382 z m 247 207 q 266 207 278 198 q 289 190 289 172 q 289 153 278 146 q 267 138 247 138 l 178 138 l 178 207 z m 205 340 l 244 340 q 256 340 256 348 q 256 356 244 356 l 205 356 z m 205 164 l 250 164 q 262 164 262 172 q 262 180 250 180 l 205 180 z"},"%":{"x_min":0,"x_max":917,"ha":917,"o":"m 236 274 q 154 274 94 334 q 33 395 33 477 q 33 560 93 620 q 153 680 236 680 q 328 680 384 613 q 437 550 437 454 q 483 515 530 576 q 612 672 663 672 q 699 672 728 644 q 756 615 756 579 q 756 536 676 444 q 649 413 622 383 q 651 392 681 392 q 765 392 824 333 q 883 274 883 189 q 883 106 824 46 q 764 -13 681 -13 q 590 -13 534 52 q 479 118 479 213 q 432 152 386 91 q 304 -5 253 -5 q 216 -5 188 22 q 160 49 160 87 q 160 124 218 196 q 256 240 295 284 q 263 274 236 274 z m 253 28 q 272 28 288 40 q 297 47 314 67 l 694 522 q 711 541 717 554 q 723 568 723 579 q 723 602 705 620 q 687 638 663 638 q 645 638 630 628 q 616 617 602 599 q 541 530 480 462 q 371 338 292 239 q 193 115 193 87 q 193 64 211 46 q 229 28 253 28 z m 511 189 q 511 119 560 70 q 610 20 681 20 q 751 20 800 70 q 850 119 850 189 q 850 259 800 308 q 751 358 681 358 q 611 358 561 309 q 511 260 511 189 z m 67 477 q 67 407 116 358 q 166 308 236 308 q 306 308 356 358 q 405 407 405 477 q 405 547 356 596 q 306 646 236 646 q 166 646 116 596 q 67 547 67 477 z m 236 70 l 227 87 q 239 119 328 229 q 389 305 500 431 q 617 564 628 578 q 640 592 644 596 q 649 600 663 605 l 682 597 l 690 579 q 678 546 589 437 q 523 357 417 235 q 353 162 289 89 q 280 79 272 72 q 265 66 253 62 z m 816 189 q 816 133 777 93 q 738 53 681 53 q 625 53 584 92 q 544 132 544 189 q 544 245 584 285 q 624 325 681 325 q 736 325 776 285 q 816 245 816 189 z m 372 477 q 372 421 332 381 q 292 341 236 341 q 180 341 140 381 q 100 421 100 477 q 100 533 140 573 q 180 613 236 613 q 292 613 332 573 q 372 533 372 477 z m 618 189 q 618 163 636 144 q 655 126 681 126 q 708 126 726 144 q 743 163 743 189 q 743 215 726 234 q 708 252 681 252 q 655 252 636 234 q 618 217 618 189 z m 173 477 q 173 451 191 433 q 209 415 236 415 q 262 415 280 432 q 299 450 299 477 q 299 504 281 522 q 263 540 236 540 q 209 540 191 522 q 173 504 173 477 z m 710 189 q 710 177 702 168 q 693 160 681 160 q 669 160 660 169 q 651 178 651 189 q 651 202 660 210 q 668 219 681 219 q 693 219 702 210 q 710 202 710 189 z m 265 477 q 265 465 256 456 q 248 448 236 448 q 224 448 216 456 q 207 465 207 477 q 207 489 216 498 q 224 506 236 506 q 248 506 256 498 q 265 489 265 477 z"},"m":{"x_min":0,"x_max":684,"ha":684,"o":"m 509 531 q 557 531 581 497 q 599 472 608 418 q 617 365 633 292 q 664 147 664 76 q 664 39 638 14 q 613 -10 576 -10 q 519 -10 496 50 q 490 66 474 159 q 452 106 430 54 q 395 -10 343 -10 q 284 -10 244 80 q 221 138 212 159 q 195 63 191 51 q 168 -10 110 -10 q 74 -10 48 15 q 22 40 22 77 q 22 144 43 248 q 60 333 78 419 q 87 472 105 497 q 129 531 178 531 q 238 531 287 433 q 332 320 343 294 q 371 363 399 432 q 449 531 509 531 z m 250 437 q 234 473 225 483 q 207 504 178 504 q 142 504 124 476 q 112 457 105 415 l 53 112 q 50 97 50 92 q 49 88 49 77 q 49 50 66 33 q 83 16 110 16 q 163 16 185 121 q 198 235 201 251 q 234 168 268 86 q 307 17 343 17 q 389 17 438 126 q 481 241 485 251 q 497 166 510 82 q 532 16 576 16 q 601 16 619 33 q 637 50 637 76 l 634 112 l 582 415 q 574 458 563 476 q 546 504 508 504 q 481 504 463 483 q 450 468 437 437 l 343 229 z m 461 426 q 472 453 477 459 q 490 477 509 477 q 534 477 544 455 q 549 444 555 410 l 607 108 q 608 100 610 93 q 611 86 611 76 q 611 61 601 52 q 591 43 576 43 q 558 43 550 57 q 543 71 540 93 l 497 343 l 388 95 q 376 69 372 62 q 359 42 343 42 q 328 42 315 61 q 309 69 298 95 l 189 343 l 147 93 q 143 69 138 60 q 129 43 110 43 q 95 43 86 52 q 76 62 76 77 l 79 108 l 131 410 q 137 443 142 454 q 153 477 178 477 q 199 477 213 452 q 217 445 225 426 l 343 164 z"},"#":{"x_min":0,"x_max":663,"ha":663,"o":"m 532 306 q 528 304 528 304 q 529 305 530 305 q 531 305 532 306 z m 560 444 q 558 443 557 443 q 556 443 555 442 q 556 442 560 444 z m 61 439 q 61 464 68 480 q 76 496 90 505 q 105 514 125 517 q 145 520 169 520 l 215 520 q 217 528 219 536 q 221 545 223 554 q 225 563 228 572 q 231 580 233 588 q 249 649 278 670 q 308 690 346 681 q 382 668 397 639 q 414 671 438 680 q 463 688 492 681 q 524 671 538 648 q 553 626 553 596 q 553 569 546 544 q 544 538 542 532 q 540 526 538 519 q 592 517 613 496 q 634 474 634 439 q 634 414 620 395 q 607 376 582 367 l 583 367 q 579 365 577 365 q 607 344 607 301 q 607 276 592 256 q 578 237 554 228 q 542 223 529 222 q 516 220 499 220 l 459 220 q 454 199 448 177 q 443 155 437 134 q 429 101 417 80 q 405 60 390 50 q 376 39 360 37 q 343 35 325 41 l 326 41 q 286 52 272 85 q 255 51 230 42 q 205 32 178 41 l 179 41 q 123 57 118 116 q 117 130 118 146 q 120 163 125 180 l 125 179 q 129 193 132 202 q 134 210 136 219 l 136 220 q 76 221 55 242 q 34 263 34 301 q 34 334 48 352 q 61 369 87 377 q 73 388 67 404 q 61 419 61 439 z m 114 439 q 114 456 129 462 q 144 467 169 467 l 256 467 l 284 575 q 293 612 304 623 q 316 634 331 629 q 351 624 353 606 q 355 587 348 558 l 323 467 l 403 467 l 431 575 q 439 612 451 623 q 463 634 479 629 q 498 624 500 606 q 502 587 494 558 l 469 467 l 526 467 q 557 467 569 460 q 581 452 581 439 q 581 422 563 416 q 551 411 526 411 l 456 411 l 433 329 l 499 329 q 530 329 542 321 q 554 313 554 301 q 554 284 536 278 q 524 273 499 273 l 419 273 l 386 147 q 377 111 364 100 q 352 88 340 93 q 318 98 317 120 q 315 135 323 164 l 351 273 l 272 273 l 239 147 q 231 111 218 100 q 206 88 192 93 q 172 98 171 120 q 167 135 176 164 l 204 273 l 142 273 q 110 273 98 280 q 87 287 87 301 q 87 318 102 324 q 117 329 142 329 l 220 329 l 241 411 l 169 411 q 137 411 126 418 q 114 426 114 439 z m 286 329 l 366 329 l 387 411 l 308 411 z m 89 439 q 89 413 106 400 q 122 386 169 386 l 209 386 q 205 372 204 367 q 202 362 200 355 l 142 355 q 105 355 83 344 q 61 333 61 301 q 61 275 78 262 q 95 248 142 248 l 171 248 q 168 234 166 226 q 163 217 162 209 q 160 201 158 192 q 155 184 152 171 l 152 172 q 141 140 146 118 q 149 80 187 68 l 185 69 q 210 61 231 76 q 252 91 264 141 l 264 140 l 292 248 l 317 248 q 314 234 312 226 q 309 217 308 209 q 306 201 304 192 q 301 184 298 171 l 298 172 q 289 139 293 118 q 296 79 333 68 l 331 69 q 356 61 378 76 q 399 91 410 141 l 410 140 l 438 248 l 499 248 q 514 248 525 249 q 536 250 544 254 q 579 267 579 301 q 579 325 562 340 q 545 355 499 355 l 467 355 q 469 368 471 374 q 473 379 475 386 l 526 386 q 555 386 572 392 q 607 406 607 439 q 607 464 589 478 q 571 493 526 493 l 503 493 q 506 504 508 510 q 509 517 510 522 q 512 528 514 534 q 516 541 519 552 l 519 551 q 526 573 526 596 q 526 617 516 632 q 506 648 485 654 q 459 660 438 646 q 417 631 406 581 q 400 560 394 538 q 389 515 383 493 l 356 493 q 359 504 360 510 q 362 517 364 522 q 365 528 367 534 q 369 541 372 552 l 372 551 q 379 573 379 596 q 379 617 369 632 q 359 648 339 654 q 313 660 292 646 q 271 631 259 581 q 254 560 248 538 q 242 515 236 493 l 169 493 q 132 493 110 483 q 89 473 89 439 z m 328 386 l 355 386 q 352 372 350 367 q 349 362 347 355 l 319 355 z"},",":{"x_min":0,"x_max":287,"ha":287,"o":"m 36 104 q 36 150 66 180 q 96 210 143 210 q 188 210 220 180 q 251 151 251 106 q 251 54 216 -5 q 176 -72 127 -72 q 92 -72 67 -50 q 42 -29 42 5 q 42 26 53 45 q 36 73 36 104 z m 76 5 q 76 -15 91 -27 q 106 -39 127 -39 q 159 -39 190 19 q 218 71 218 106 q 218 137 196 157 q 174 177 143 177 q 111 177 90 157 q 69 137 69 104 q 69 88 74 76 q 79 63 91 46 q 85 38 80 26 q 76 15 76 5 z m 103 104 q 103 121 114 133 q 125 145 143 145 q 161 145 173 135 q 185 125 185 106 q 185 84 163 38 q 141 -7 125 -7 q 107 -7 107 10 q 107 18 117 39 q 124 53 131 67 q 103 77 103 104 z"},"n":{"x_min":0,"x_max":555,"ha":555,"o":"m 127 -10 q 82 -10 60 19 q 39 48 39 95 l 39 424 q 39 471 62 501 q 84 531 129 531 q 178 531 254 437 q 327 335 338 321 q 338 333 337 362 q 336 392 336 394 q 336 475 361 505 q 383 531 426 531 q 471 531 494 499 q 514 471 514 425 l 514 95 q 514 49 495 22 q 473 -10 427 -10 q 379 -10 300 86 q 225 189 215 202 q 215 193 216 167 q 217 141 217 126 q 217 64 202 33 q 181 -10 127 -10 z m 371 52 q 383 38 388 33 q 406 16 427 16 q 462 16 476 41 q 487 61 487 99 l 487 421 q 487 458 476 478 q 461 504 426 504 q 391 504 378 481 q 365 458 365 421 l 365 245 l 189 464 q 168 490 156 497 q 144 504 128 504 q 93 504 80 481 q 66 458 66 421 l 66 99 q 66 61 77 42 q 92 16 127 16 q 161 16 176 41 q 188 62 188 99 l 188 277 z m 162 99 q 162 71 158 61 q 151 43 127 43 q 106 43 99 58 q 92 72 92 95 l 92 424 q 92 447 100 462 q 107 477 128 477 q 145 477 210 402 q 257 347 324 259 q 357 214 391 170 l 391 421 q 391 446 398 462 q 404 477 426 477 q 447 477 454 463 q 461 449 461 425 l 461 96 q 461 71 457 61 q 449 43 428 43 q 411 43 347 117 q 296 176 232 260 q 197 306 162 353 z"},"h":{"x_min":0,"x_max":539,"ha":539,"o":"m 215 185 q 215 170 215 154 q 215 139 216 122 q 216 44 191 15 q 170 -10 127 -10 q 82 -10 60 19 q 39 48 39 95 l 39 425 q 39 471 60 501 q 82 531 127 531 q 181 531 201 491 q 216 462 216 403 q 216 388 216 374 q 215 359 215 345 l 322 345 q 322 358 322 372 q 321 387 321 403 q 321 478 346 507 q 367 531 409 531 q 455 531 478 500 q 498 473 498 425 l 498 96 q 498 50 478 22 q 455 -10 409 -10 q 357 -10 336 31 q 321 61 321 120 q 321 137 321 153 q 321 169 322 185 z m 409 16 q 444 16 459 41 q 471 61 471 99 l 471 421 q 471 459 460 478 q 445 504 409 504 q 372 504 356 471 q 344 446 344 397 q 344 380 346 353 q 348 326 348 319 l 188 319 q 188 325 190 353 q 192 381 192 399 q 192 448 181 471 q 165 504 127 504 q 93 504 80 482 q 66 459 66 421 l 66 96 q 66 61 80 38 q 93 16 127 16 q 164 16 180 51 q 192 78 192 127 q 192 145 190 166 q 189 188 188 212 l 348 212 q 348 206 346 177 q 344 148 344 129 q 344 77 355 52 q 371 16 409 16 z m 162 238 l 162 99 q 162 74 157 62 q 149 43 127 43 q 106 43 99 57 q 92 71 92 95 l 92 425 q 92 454 102 466 q 111 477 127 477 q 149 477 157 459 q 162 447 162 421 l 162 292 l 375 292 l 375 421 q 375 448 380 462 q 386 477 409 477 q 430 477 437 463 q 444 449 444 425 l 444 95 q 444 71 439 60 q 431 43 409 43 q 384 43 380 63 q 375 83 375 99 l 375 238 z"},"z":{"x_min":0,"x_max":482,"ha":482,"o":"m 19 441 q 19 484 48 506 q 77 527 122 527 l 352 527 q 396 527 422 511 q 455 491 455 448 q 455 421 410 349 q 378 297 325 226 q 301 195 278 164 q 292 164 308 164 q 324 164 341 165 q 414 165 442 141 q 466 120 466 79 q 466 35 438 14 q 409 -7 364 -7 l 118 -7 q 73 -7 49 10 q 20 30 20 73 q 20 104 63 173 q 94 223 146 291 q 171 323 197 356 q 183 356 169 356 q 155 355 140 355 q 69 355 42 380 q 19 401 19 441 z m 47 73 q 47 43 70 30 q 88 20 121 20 l 364 20 q 399 20 417 31 q 440 45 440 79 q 440 116 407 130 q 374 143 321 143 q 293 143 270 141 q 246 139 227 138 q 228 138 278 206 q 327 275 375 348 q 428 430 428 448 q 428 477 406 488 q 383 500 352 500 l 122 500 q 86 500 69 489 q 46 474 46 441 q 46 405 82 389 q 110 377 160 377 q 185 377 207 378 q 229 380 247 382 q 233 365 194 312 q 131 227 98 176 q 47 97 47 73 z m 125 409 q 101 409 90 413 q 72 420 72 441 q 72 466 88 470 q 104 473 122 473 l 352 473 q 379 473 390 468 q 401 462 401 449 q 401 435 346 352 q 311 299 240 199 q 208 155 177 111 l 360 111 q 385 111 399 106 q 413 100 413 79 q 413 63 403 55 q 393 47 364 47 l 118 47 q 99 47 86 52 q 74 57 74 73 q 74 87 131 173 q 169 229 238 326 q 268 367 298 409 z"},"B":{"x_min":0,"x_max":605,"ha":605,"o":"m 566 227 q 566 109 484 51 q 412 0 291 0 l 194 0 q 118 0 85 32 q 52 64 52 140 l 52 527 q 52 603 85 635 q 118 667 194 667 l 282 666 q 397 666 468 619 q 552 564 552 454 q 552 398 526 348 q 546 324 556 292 q 566 260 566 227 z m 518 453 q 518 552 441 597 q 379 633 274 633 l 194 633 q 132 633 108 612 q 85 590 85 527 l 85 140 q 85 79 109 56 q 133 33 194 33 l 291 33 q 399 33 460 74 q 533 123 533 227 q 533 298 486 344 q 518 394 518 453 z m 500 227 q 500 140 438 100 q 387 67 296 67 l 189 67 q 145 67 132 82 q 118 96 118 140 l 118 527 q 118 574 132 587 q 146 600 194 600 l 280 600 q 371 600 420 572 q 485 535 485 450 q 485 416 474 390 q 462 363 436 344 q 467 327 484 296 q 500 264 500 227 z m 205 367 l 314 367 q 353 367 378 386 q 402 405 402 443 q 402 481 378 500 q 353 520 314 520 l 205 520 z m 205 146 l 322 146 q 360 146 385 166 q 410 186 410 223 q 410 260 385 280 q 360 300 322 300 l 205 300 z m 316 486 q 340 486 354 476 q 369 466 369 443 q 369 421 354 410 q 339 400 316 400 l 238 400 l 238 486 z m 324 267 q 346 267 361 256 q 376 245 376 223 q 376 194 354 185 q 342 180 324 180 l 238 180 l 238 267 z m 271 433 l 320 433 q 335 433 335 443 q 335 453 320 453 l 271 453 z m 271 213 l 328 213 q 343 213 343 223 q 343 233 328 233 l 271 233 z"},"K":{"x_min":0,"x_max":608,"ha":608,"o":"m 461 671 q 506 671 538 639 q 570 607 570 562 q 570 514 499 438 q 418 361 401 344 q 454 294 508 244 q 591 157 591 106 q 591 60 560 28 q 528 -5 482 -5 q 424 -5 334 94 q 302 130 271 167 q 271 84 257 51 q 233 -5 162 -5 q 105 -5 78 32 q 52 69 52 127 l 52 539 q 52 596 77 631 q 106 671 162 671 q 226 671 252 624 q 271 589 271 520 q 312 565 353 610 q 416 671 461 671 z m 162 638 q 118 638 102 610 q 85 582 85 535 l 85 128 q 85 83 100 59 q 119 28 162 28 q 208 28 227 69 q 242 101 242 157 q 242 176 240 200 q 239 224 238 251 q 307 173 377 95 q 447 28 484 28 q 516 28 537 51 q 558 74 558 106 q 558 148 461 245 q 360 338 355 343 q 418 405 481 468 q 536 532 536 562 q 536 593 514 616 q 493 638 462 638 q 419 638 330 543 q 284 489 238 436 q 238 451 240 482 q 241 513 241 516 q 241 570 227 599 q 208 638 162 638 z m 461 605 q 473 605 486 595 q 494 589 497 583 l 503 563 q 492 522 413 443 q 360 393 308 343 q 366 291 419 238 q 525 132 525 105 q 525 86 514 74 q 502 61 483 61 q 460 61 392 128 q 345 174 273 257 q 239 296 205 336 l 205 132 q 205 100 199 85 q 190 62 162 62 q 135 62 126 80 q 118 98 118 128 l 118 538 q 118 568 126 586 q 135 605 162 605 q 190 605 199 582 q 205 567 205 535 l 205 351 q 272 430 323 486 q 421 594 461 605 z"},"R":{"x_min":0,"x_max":599,"ha":599,"o":"m 540 104 q 540 58 509 26 q 478 -6 432 -6 q 393 -6 357 27 q 345 38 271 145 q 271 78 251 42 q 225 -5 162 -5 q 104 -5 76 36 q 52 71 52 132 l 52 527 q 52 603 85 635 q 118 667 194 667 l 277 667 q 397 667 475 606 q 561 539 561 420 q 561 367 538 318 q 514 270 472 233 q 513 179 516 174 q 540 136 540 104 z m 528 420 q 528 522 454 580 q 386 633 282 633 l 194 633 q 132 633 108 612 q 85 590 85 527 l 85 132 q 85 84 99 60 q 117 28 162 28 q 209 28 228 67 q 241 94 241 150 q 241 162 240 183 q 239 204 239 212 l 266 212 q 298 160 331 108 q 389 28 433 28 q 464 28 485 50 q 506 72 506 104 q 506 129 473 179 q 435 231 426 244 q 473 270 500 318 q 528 365 528 420 z m 162 62 q 134 62 124 85 q 118 99 118 132 l 118 527 q 118 574 132 587 q 146 600 194 600 l 281 600 q 372 600 430 557 q 495 509 495 420 q 495 364 463 321 q 431 278 376 255 q 415 205 428 186 q 473 123 473 104 q 473 87 462 74 q 451 61 434 61 q 405 61 344 149 q 313 197 283 245 l 205 245 q 205 235 208 208 q 210 180 210 163 q 210 119 201 94 q 189 62 162 62 z m 205 318 l 293 318 q 344 318 378 344 q 411 371 411 421 q 411 475 376 500 q 342 526 286 526 l 205 526 z m 238 493 l 286 493 q 328 493 350 479 q 378 461 378 421 q 378 383 350 366 q 327 352 287 352 l 238 352 z m 287 385 q 314 385 326 390 q 345 398 345 421 q 345 444 329 452 q 313 459 286 459 l 271 459 l 271 385 z"},"T":{"x_min":0,"x_max":590,"ha":590,"o":"m 19 560 q 19 615 55 640 q 91 666 147 666 l 443 666 q 499 666 535 640 q 571 615 571 560 q 571 491 517 468 q 482 453 405 453 l 405 132 q 405 71 382 37 q 354 -5 295 -5 q 237 -5 209 36 q 185 72 185 132 l 185 453 q 105 453 73 467 q 19 490 19 560 z m 218 132 q 218 85 232 61 q 251 28 295 28 q 338 28 357 60 q 372 86 372 132 l 372 486 q 384 486 398 486 q 411 485 426 485 q 477 485 502 497 q 538 514 538 560 q 538 601 512 617 q 486 633 443 633 l 147 633 q 104 633 81 619 q 52 601 52 560 q 52 515 87 498 q 114 485 164 485 q 178 485 192 485 q 205 485 218 486 z m 85 560 q 85 587 102 594 q 119 600 151 600 l 439 600 q 470 600 488 594 q 505 587 505 560 q 505 534 480 525 q 454 516 412 516 q 395 516 376 517 q 358 518 338 520 l 338 132 q 338 100 332 85 q 323 62 295 62 q 267 62 257 85 q 251 99 251 132 l 251 520 q 249 520 223 518 q 197 516 178 516 q 123 516 104 528 q 85 539 85 560 z"},"P":{"x_min":0,"x_max":585,"ha":585,"o":"m 162 -5 q 104 -5 76 36 q 52 72 52 132 l 52 527 q 52 603 85 635 q 118 667 194 667 l 295 667 q 409 667 484 600 q 560 534 560 421 q 560 298 474 233 q 398 176 271 176 q 271 88 259 56 q 236 -5 162 -5 z m 526 421 q 526 520 460 576 q 395 633 295 633 l 194 633 q 132 633 108 612 q 85 590 85 527 l 85 132 q 85 85 99 61 q 118 28 162 28 q 209 28 227 66 q 240 93 240 148 q 240 159 239 180 q 238 201 238 209 q 368 209 436 247 q 526 298 526 421 z m 162 62 q 134 62 124 85 q 118 99 118 132 l 118 527 q 118 574 132 587 q 146 600 194 600 l 295 600 q 381 600 435 555 q 493 506 493 421 q 493 303 398 265 q 343 243 205 243 q 205 240 208 206 q 210 173 210 162 q 210 118 201 94 q 189 62 162 62 z m 293 316 q 348 316 380 341 q 413 366 413 421 q 413 474 380 498 q 347 523 292 523 l 205 523 l 205 316 z m 238 490 l 292 490 q 333 490 356 474 q 380 459 380 421 q 380 381 356 364 q 336 350 293 350 l 238 350 z m 296 383 q 323 383 332 388 q 346 396 346 421 q 346 443 333 450 q 320 457 295 457 l 271 457 l 271 383 z"},"|":{"x_min":0,"x_max":467,"ha":467,"o":"m 317 12 q 317 -34 297 -64 q 277 -93 231 -93 q 187 -93 166 -61 q 145 -33 145 12 l 145 651 q 145 698 164 724 q 184 757 231 757 q 277 757 297 726 q 317 696 317 651 z m 174 12 q 174 -22 183 -40 q 196 -65 231 -65 q 264 -65 276 -43 q 288 -21 288 12 l 288 651 q 288 686 278 704 q 265 728 231 728 q 198 728 184 704 q 174 686 174 651 z m 260 12 q 260 -7 254 -25 q 243 -36 231 -36 q 227 -36 221 -34 q 215 -32 209 -26 q 202 -5 202 12 l 202 651 q 202 660 204 669 q 206 678 209 689 q 215 696 220 698 q 226 700 231 700 q 250 700 255 687 q 260 674 260 651 z"},"t":{"x_min":0,"x_max":479,"ha":479,"o":"m 22 441 q 22 485 50 506 q 78 526 124 526 l 362 526 q 406 526 435 506 q 464 485 464 441 q 464 386 421 367 q 394 355 331 355 l 331 98 q 331 50 312 22 q 290 -11 243 -11 q 196 -11 176 20 q 155 50 155 98 l 155 355 q 91 355 65 366 q 22 385 22 441 z m 182 98 q 182 61 193 42 q 208 16 243 16 q 278 16 291 39 q 304 62 304 98 l 304 382 q 314 382 325 382 q 336 381 348 381 q 389 381 409 391 q 437 405 437 441 q 437 473 416 486 q 395 500 361 500 l 124 500 q 89 500 68 488 q 48 475 48 441 q 48 405 77 391 q 98 381 138 381 q 149 381 160 381 q 171 381 182 382 z m 75 441 q 75 457 85 465 q 95 473 124 473 l 362 473 q 384 473 398 467 q 411 461 411 441 q 411 421 390 413 q 370 405 339 405 q 324 405 302 407 q 280 409 278 409 l 278 98 q 278 73 273 61 q 265 42 243 42 q 226 42 217 54 q 208 65 208 98 l 208 409 q 202 409 178 408 q 154 406 149 406 q 116 406 99 412 q 75 421 75 441 z"},"M":{"x_min":0,"x_max":851,"ha":851,"o":"m 632 672 q 692 672 722 630 q 745 598 756 532 q 762 496 789 373 q 827 198 827 104 q 827 57 795 26 q 763 -5 716 -5 q 631 -5 606 104 q 594 177 589 207 q 561 141 533 75 q 489 -5 425 -5 q 352 -5 301 109 q 272 181 261 207 q 242 90 235 71 q 207 -5 134 -5 q 89 -5 56 26 q 24 58 24 104 q 24 190 50 319 q 72 425 94 532 q 105 597 128 629 q 159 672 218 672 q 293 672 355 549 q 411 408 425 375 q 460 461 495 548 q 557 672 632 672 z m 309 554 q 289 596 277 611 q 254 638 219 638 q 184 638 163 618 q 138 594 127 527 l 63 148 q 60 136 58 125 q 57 114 57 104 q 57 72 79 50 q 101 28 134 28 q 201 28 228 159 q 244 302 248 322 q 263 278 278 235 q 309 151 341 100 q 385 29 425 29 q 465 29 509 99 q 543 153 573 234 q 588 278 603 322 q 612 241 622 160 q 649 28 716 28 q 747 28 770 50 q 793 72 793 104 q 793 125 788 148 l 724 527 q 712 594 690 616 q 667 638 631 638 q 590 638 565 599 q 557 587 542 554 l 425 294 z m 572 541 q 587 574 593 582 q 609 605 632 605 q 664 605 677 577 q 683 565 690 521 l 755 143 q 756 133 758 122 q 760 110 760 104 q 760 84 748 73 q 736 62 716 62 q 693 62 682 83 q 675 95 671 124 l 617 437 l 481 127 q 466 93 461 86 q 445 61 425 61 q 406 61 390 85 q 384 94 369 127 l 233 437 l 180 124 q 174 93 169 83 q 158 62 134 62 q 117 62 104 74 q 91 86 91 104 q 91 120 93 130 q 95 139 95 143 l 160 521 q 167 561 174 576 q 188 605 218 605 q 240 605 256 583 q 263 573 278 541 l 425 213 z"},"g":{"x_min":0,"x_max":552,"ha":552,"o":"m 333 157 q 298 157 274 180 q 249 204 249 239 q 249 282 278 302 q 306 321 351 321 l 427 321 q 484 321 506 298 q 527 276 527 219 l 527 133 q 527 49 459 11 q 405 -19 313 -19 q 191 -19 108 60 q 24 140 24 261 q 24 377 106 458 q 189 540 307 540 q 368 540 416 516 q 477 485 477 429 q 477 394 454 368 q 432 343 396 343 q 379 343 348 354 q 318 364 303 364 q 261 364 230 333 q 199 302 199 259 q 199 212 233 182 q 267 153 315 153 q 325 153 343 157 z m 383 141 q 350 127 315 127 q 256 127 214 164 q 173 201 173 259 q 173 313 211 352 q 249 391 303 391 q 319 391 361 377 q 382 370 396 370 q 419 370 435 388 q 451 406 451 429 q 451 473 398 496 q 358 513 307 513 q 200 513 126 440 q 51 368 51 261 q 51 152 126 80 q 202 7 313 7 q 394 7 439 30 q 500 61 500 133 l 500 219 q 500 264 486 280 q 471 295 427 295 l 351 295 q 318 295 296 282 q 275 270 275 239 q 275 198 313 187 q 330 182 383 182 z m 302 238 q 302 261 318 264 q 334 268 351 268 l 427 268 q 443 268 465 263 q 471 254 472 243 q 474 232 474 223 l 474 133 q 474 75 421 51 q 383 34 313 34 q 213 34 146 98 q 78 161 78 261 q 78 356 145 421 q 212 486 307 486 q 346 486 378 475 q 424 459 424 428 q 424 415 416 406 q 409 397 396 397 q 382 397 363 403 q 316 418 303 418 q 239 418 192 370 q 146 323 146 259 q 146 191 196 146 q 245 100 315 100 q 363 100 410 122 l 410 208 q 408 208 393 207 q 378 206 367 206 q 339 206 320 213 q 302 220 302 238 z"},"j":{"x_min":0,"x_max":466,"ha":466,"o":"m 430 420 l 430 210 q 430 107 378 47 q 322 -18 220 -18 q 115 -18 61 49 q 11 111 11 215 q 11 263 29 290 q 51 323 98 323 q 173 323 184 239 q 195 155 220 155 q 223 155 229 157 q 235 159 240 161 q 249 171 253 192 q 257 212 257 239 q 257 260 254 310 q 251 360 251 385 q 251 454 267 487 q 288 530 342 530 q 389 530 411 497 q 430 469 430 420 z m 342 503 q 304 503 290 474 q 277 444 277 388 q 277 365 280 315 q 283 265 283 241 q 283 186 272 161 q 258 128 220 128 q 166 128 160 212 q 154 296 98 296 q 64 296 50 274 q 37 253 37 216 q 37 121 79 68 q 126 9 220 9 q 312 9 359 66 q 403 119 403 210 l 403 420 q 403 458 392 477 q 377 503 342 503 z m 377 420 l 377 211 q 377 130 341 85 q 301 35 220 35 q 138 35 99 86 q 64 131 64 216 q 64 240 70 255 q 77 270 98 270 q 126 270 136 186 q 146 101 220 101 q 273 101 294 147 q 310 182 310 255 q 310 291 308 322 q 306 353 304 397 q 304 437 312 457 q 320 477 342 477 q 364 477 372 459 q 377 447 377 420 z"},"i":{"x_min":0,"x_max":259,"ha":259,"o":"m 130 -10 q 85 -10 64 19 q 42 48 42 95 l 42 425 q 42 471 64 501 q 85 531 130 531 q 175 531 198 499 q 218 471 218 425 l 217 96 q 217 49 198 22 q 176 -10 130 -10 z m 130 16 q 164 16 179 40 q 191 59 191 96 l 191 424 q 191 459 179 479 q 164 504 130 504 q 95 504 82 482 q 68 461 68 424 l 68 96 q 68 61 82 38 q 95 16 130 16 z m 130 43 q 108 43 102 57 q 95 71 95 96 l 95 424 q 95 449 102 463 q 108 477 130 477 q 151 477 159 460 q 164 449 164 424 l 164 96 q 164 71 159 60 q 151 43 130 43 z"},"y":{"x_min":0,"x_max":487,"ha":487,"o":"m 19 444 q 19 479 46 505 q 73 531 108 531 q 158 531 209 456 q 229 424 249 393 q 275 436 302 479 q 341 531 385 531 q 420 531 447 505 q 474 479 474 444 q 474 406 411 316 q 373 265 335 215 q 335 198 336 166 q 338 134 338 132 q 338 68 323 36 q 301 -10 247 -10 q 193 -10 172 34 q 156 67 156 130 q 156 154 157 174 q 158 195 159 215 q 109 283 59 351 q 19 414 19 444 z m 247 16 q 284 16 300 53 q 313 83 313 133 q 313 158 311 182 q 309 205 308 224 q 356 290 404 356 q 447 422 447 444 q 447 469 428 486 q 410 504 385 504 q 350 504 302 435 q 257 359 249 347 q 211 403 174 460 q 137 504 108 504 q 83 504 64 486 q 46 469 46 444 q 46 417 114 320 q 149 272 185 224 q 185 210 184 198 q 180 149 180 134 q 180 81 192 53 q 208 16 247 16 z m 73 444 q 73 458 84 468 q 94 477 108 477 q 131 477 192 391 q 221 350 251 300 q 288 361 326 423 q 365 477 385 477 q 400 477 410 468 q 421 458 421 444 q 421 430 379 368 q 330 300 281 232 l 281 99 q 281 72 277 62 q 270 43 247 43 q 225 43 218 58 q 212 73 212 99 l 212 232 q 185 268 141 331 q 73 428 73 444 z"},"@":{"x_min":0,"x_max":826,"ha":826,"o":"m 580 334 q 575 307 567 275 q 559 243 556 216 q 570 231 576 243 q 582 255 586 273 q 593 297 588 313 q 583 329 580 334 z m 354 231 q 351 218 356 210 q 360 201 367 208 q 379 215 386 226 q 392 237 394 246 q 398 256 400 268 q 403 279 403 292 q 403 303 395 303 q 387 303 380 294 q 373 279 365 264 q 357 250 354 231 z m 759 315 q 758 280 754 252 q 749 223 738 197 q 744 196 749 192 q 754 188 759 185 q 789 153 789 116 q 789 85 766 53 q 700 -26 610 -67 q 528 -111 422 -111 q 342 -111 280 -90 q 219 -70 166 -28 q 104 21 72 90 q 39 158 39 243 q 39 407 147 517 l 146 517 q 253 626 415 626 q 579 626 684 509 q 759 415 759 315 z m 335 330 q 318 305 308 280 q 297 256 297 231 q 297 215 298 200 q 299 185 314 170 q 321 159 334 154 q 348 149 362 149 q 389 149 409 169 q 422 180 432 197 q 443 214 448 229 q 453 241 457 259 q 461 277 461 294 q 461 311 457 324 q 453 336 444 344 q 428 363 394 363 q 379 363 363 354 q 347 346 335 330 z m 295 371 q 319 394 342 408 q 364 422 394 422 q 442 419 475 385 q 478 383 482 377 q 484 389 484 391 q 490 408 498 417 q 507 426 522 422 q 533 417 538 408 q 542 398 540 387 q 519 297 506 239 q 494 181 494 169 q 494 137 513 137 q 533 137 555 146 q 577 156 597 181 q 624 209 637 240 q 650 272 650 309 q 650 350 634 384 q 617 417 591 445 q 526 512 420 512 q 355 512 308 494 q 260 475 222 434 q 190 396 172 352 q 155 307 155 246 q 155 189 172 144 q 190 98 232 68 q 306 5 422 5 q 453 5 488 14 q 523 24 556 35 q 587 53 618 76 q 650 98 671 127 q 684 140 696 144 q 709 149 720 143 q 743 118 725 93 q 660 21 585 -16 q 547 -33 508 -43 q 468 -53 422 -53 q 354 -53 301 -35 q 248 -17 204 17 q 98 102 98 243 q 98 383 190 475 q 280 568 415 568 q 557 568 641 471 q 701 401 701 315 q 701 266 684 224 q 668 182 637 149 l 638 149 q 579 82 509 82 q 477 82 457 102 q 456 107 452 112 q 448 118 444 127 q 415 97 360 97 q 335 98 312 108 q 289 119 271 139 q 257 154 248 177 q 239 200 239 231 q 239 270 253 305 q 267 340 295 371 z m 728 315 q 728 408 661 490 q 567 597 415 597 q 341 597 280 570 q 219 544 170 494 l 171 494 q 68 394 68 243 q 68 166 98 103 q 129 40 186 -6 q 235 -42 292 -62 q 348 -81 422 -81 q 519 -81 599 -39 q 638 -20 674 8 q 711 35 744 72 q 778 119 740 163 q 728 171 714 173 q 701 175 688 171 q 728 234 728 315 z m 469 427 q 453 437 435 442 q 417 447 395 451 q 323 451 274 391 q 239 358 226 317 q 212 276 212 231 q 212 196 224 168 q 235 139 250 118 q 272 97 300 84 q 329 70 360 69 q 404 69 434 85 q 451 66 475 58 q 499 50 525 55 q 500 45 474 38 q 447 31 422 31 q 367 31 326 46 q 285 61 250 88 q 214 116 198 156 q 183 196 183 246 q 183 299 200 338 q 217 376 244 412 q 278 444 321 464 q 364 485 420 485 q 516 485 573 427 q 594 402 607 373 q 620 344 620 309 q 620 278 610 252 q 599 227 578 201 q 570 192 560 184 q 551 175 542 170 q 533 166 528 165 q 522 164 522 169 q 522 180 534 236 q 546 292 568 381 q 573 402 562 420 q 552 437 525 451 q 507 454 494 447 q 480 440 469 427 z m 355 315 q 375 336 394 336 q 417 336 425 326 q 433 315 433 294 q 433 279 430 264 q 426 248 422 237 l 422 237 q 418 226 408 212 q 399 197 389 187 q 379 176 362 176 q 353 176 346 179 q 340 182 336 185 q 328 194 326 206 q 324 218 324 231 q 324 250 332 272 q 341 293 356 315 z"},".":{"x_min":0,"x_max":287,"ha":287,"o":"m 251 103 q 251 59 219 27 q 187 -5 143 -5 q 99 -5 68 26 q 36 58 36 103 q 36 147 68 178 q 99 210 143 210 q 188 210 220 178 q 251 147 251 103 z m 69 103 q 69 72 90 50 q 111 28 143 28 q 175 28 196 50 q 218 71 218 103 q 218 134 196 156 q 175 177 143 177 q 112 177 90 156 q 69 134 69 103 z m 184 103 q 184 86 172 74 q 160 62 143 62 q 126 62 114 74 q 103 85 103 103 q 103 120 114 132 q 125 144 143 144 q 160 144 172 132 q 184 120 184 103 z"},"p":{"x_min":0,"x_max":464,"ha":464,"o":"m 125 -11 q 79 -11 58 20 q 38 50 38 98 l 38 414 q 38 475 64 500 q 91 526 152 526 l 232 526 q 323 526 384 473 q 444 420 444 330 q 444 232 375 180 q 314 134 213 134 q 213 64 203 38 q 184 -11 125 -11 z m 417 330 q 417 407 366 454 q 314 500 236 500 l 147 500 q 100 500 82 481 q 64 462 64 414 l 64 98 q 64 61 75 42 q 90 16 125 16 q 162 16 177 46 q 188 69 188 112 q 188 125 188 137 q 187 149 187 160 q 292 160 345 190 q 417 231 417 330 z m 125 42 q 100 42 96 62 q 91 82 91 98 l 91 414 q 91 452 102 462 q 114 473 152 473 l 236 473 q 304 473 348 435 q 391 397 391 330 q 391 235 315 205 q 270 187 160 187 q 160 185 162 162 q 164 139 164 122 q 164 86 156 64 q 148 42 125 42 z m 231 246 q 276 246 302 266 q 327 286 327 330 q 327 372 300 392 q 273 412 230 412 l 160 412 l 160 246 z m 187 385 l 230 385 q 262 385 281 372 q 300 360 300 330 q 300 298 280 284 q 264 273 231 273 l 187 273 z m 233 299 q 255 299 264 304 q 273 309 273 330 q 273 348 262 354 q 252 359 232 359 l 213 359 l 213 299 z"},"X":{"x_min":0,"x_max":618,"ha":618,"o":"m 477 673 q 521 673 554 641 q 587 609 587 564 q 587 521 528 441 q 461 359 447 341 q 498 282 532 236 q 598 147 598 102 q 598 58 565 26 q 532 -6 488 -6 q 429 -6 362 83 q 335 120 309 158 q 272 108 236 58 q 181 -6 131 -6 q 86 -6 53 25 q 20 56 20 102 q 20 146 86 235 q 128 288 171 341 q 131 390 92 440 q 31 523 31 564 q 31 609 64 641 q 97 673 142 673 q 181 673 218 640 q 228 631 309 523 q 343 570 378 617 q 427 673 477 673 z m 142 640 q 111 640 88 618 q 64 595 64 564 q 64 530 134 438 q 173 389 213 341 q 157 270 102 200 q 53 130 53 103 q 53 71 76 49 q 99 27 131 27 q 174 27 238 110 q 299 200 309 213 q 358 146 407 80 q 456 27 488 27 q 518 27 542 50 q 565 72 565 102 q 565 140 491 237 q 412 332 405 341 q 457 407 510 473 q 554 537 554 564 q 554 594 531 617 q 508 640 477 640 q 437 640 377 564 q 319 481 309 468 q 275 516 242 565 q 184 640 142 640 z m 426 567 q 440 585 447 592 q 462 606 477 606 q 494 606 508 594 q 521 581 521 564 q 521 543 442 440 q 416 406 363 341 q 379 325 448 235 q 532 125 532 102 q 532 84 519 72 q 506 60 488 60 q 460 60 382 164 q 356 198 309 269 l 181 99 q 164 78 160 74 q 145 60 130 60 q 113 60 100 72 q 86 85 86 102 q 86 119 129 180 q 155 217 211 287 q 254 341 255 341 q 215 390 175 440 q 98 540 98 564 q 98 582 111 594 q 124 606 142 606 q 169 606 234 519 q 271 466 309 413 z"},"*":{"x_min":0,"x_max":409,"ha":409,"o":"m 340 440 q 340 406 314 384 q 289 362 254 362 q 224 362 206 380 q 195 371 182 366 q 169 360 156 360 q 124 360 98 384 q 73 407 73 439 q 73 455 81 473 q 40 494 40 537 q 40 575 64 601 q 89 627 126 623 q 144 682 205 682 q 234 682 256 666 q 277 651 282 623 l 294 624 q 328 624 348 598 q 369 572 369 537 q 369 490 332 473 q 340 457 340 440 z m 334 539 q 334 561 321 575 q 308 589 287 589 q 274 589 254 583 q 254 614 245 629 q 233 649 204 649 q 176 649 165 631 q 154 613 154 583 q 148 585 138 587 q 127 589 120 589 q 105 589 94 580 q 74 564 74 538 q 74 517 89 504 q 98 496 124 487 q 118 478 112 466 q 107 454 107 444 q 107 424 122 410 q 137 396 157 396 q 171 396 183 405 q 195 414 205 428 q 220 412 226 407 q 241 395 254 395 q 275 395 290 410 q 306 424 306 444 q 306 453 304 460 q 301 467 288 487 q 311 498 314 500 q 334 513 334 539 z m 285 562 q 293 562 299 556 q 305 550 305 542 q 305 528 276 516 q 243 506 238 504 q 251 489 259 478 q 276 455 276 446 q 276 439 270 433 q 264 427 257 427 q 246 427 227 451 q 216 466 205 481 q 196 466 187 451 q 170 426 158 426 q 150 426 144 432 q 137 437 137 445 q 137 452 154 478 q 171 503 172 504 q 153 509 135 514 q 104 525 104 539 q 104 558 123 558 q 134 558 152 552 q 169 547 185 542 q 185 546 184 558 q 183 570 183 574 q 183 593 188 606 q 192 618 205 618 q 218 618 222 606 q 227 595 227 577 q 227 569 226 556 q 225 544 225 542 q 243 549 260 556 q 277 562 285 562 z"},"Y":{"x_min":0,"x_max":602,"ha":602,"o":"m 17 563 q 17 607 50 639 q 83 671 127 671 q 189 671 253 578 q 278 539 304 500 q 337 553 370 607 q 419 671 474 671 q 519 671 552 640 q 584 608 584 563 q 584 516 505 403 q 458 340 411 277 q 411 263 413 222 q 415 180 415 170 q 415 90 396 51 q 369 -5 301 -5 q 233 -5 207 51 q 188 91 188 172 q 188 202 189 228 q 190 253 191 277 q 129 362 68 447 q 17 527 17 563 z m 301 28 q 348 28 368 74 q 383 109 383 174 q 383 209 381 232 q 379 256 377 288 q 437 370 498 453 q 551 534 551 563 q 551 594 528 616 q 505 638 474 638 q 429 638 370 551 q 314 456 304 441 q 256 511 209 582 q 161 638 127 638 q 97 638 74 616 q 50 593 50 563 q 50 527 134 408 q 179 348 224 288 q 224 270 223 256 q 218 188 218 174 q 218 109 233 74 q 253 28 301 28 z m 83 563 q 83 581 96 593 q 109 605 127 605 q 149 605 202 537 q 254 460 307 384 q 354 460 401 537 q 450 605 474 605 q 491 605 504 592 q 518 580 518 563 q 518 541 434 422 q 389 360 344 298 l 344 132 q 344 100 338 85 q 329 62 301 62 q 273 62 263 85 q 257 99 257 132 l 257 298 q 233 331 209 364 q 156 436 127 481 q 83 548 83 563 z"},"c":{"x_min":0,"x_max":572,"ha":572,"o":"m 307 155 q 341 155 373 180 q 444 235 464 235 q 499 235 525 209 q 551 183 551 148 q 551 78 464 26 q 388 -20 312 -20 q 194 -20 110 61 q 26 142 26 259 q 26 376 109 458 q 192 540 309 540 q 385 540 463 493 q 552 439 552 368 q 552 332 526 307 q 500 282 464 282 q 429 282 390 323 q 351 364 307 364 q 263 364 233 333 q 203 302 203 258 q 203 217 234 186 q 265 155 307 155 z m 307 390 q 359 390 402 350 q 444 309 464 309 q 488 309 506 326 q 525 344 525 368 q 525 427 444 473 q 373 513 309 513 q 204 513 128 438 q 53 364 53 259 q 53 153 129 80 q 205 7 312 7 q 377 7 445 45 q 525 90 525 148 q 525 172 507 190 q 489 208 464 208 q 446 208 400 168 q 354 128 307 128 q 254 128 215 166 q 176 204 176 257 q 176 313 214 352 q 251 390 307 390 z m 307 102 q 362 102 410 142 q 457 181 467 181 q 479 181 488 170 q 498 160 498 148 q 498 103 426 66 q 362 33 312 33 q 216 33 148 98 q 79 164 79 259 q 79 353 147 420 q 215 487 309 487 q 362 487 425 454 q 499 415 499 367 q 499 354 488 344 q 478 335 465 335 q 459 335 412 376 q 365 417 311 417 q 242 417 196 372 q 150 327 150 257 q 150 192 196 147 q 242 102 307 102 z"},"!":{"x_min":0,"x_max":327,"ha":327,"o":"m 273 374 q 273 312 250 278 q 222 237 163 237 q 105 237 77 278 q 53 313 53 374 l 53 551 q 53 610 77 646 q 105 688 163 688 q 221 688 249 647 q 273 612 273 551 z m 271 103 q 271 59 239 27 q 207 -5 163 -5 q 119 -5 88 26 q 56 58 56 103 q 56 147 88 178 q 119 210 163 210 q 208 210 240 178 q 271 147 271 103 z m 86 370 q 86 325 101 301 q 120 270 163 270 q 206 270 225 300 q 240 324 240 369 l 240 555 q 240 600 225 624 q 206 654 163 654 q 119 654 102 626 q 86 598 86 551 z m 89 103 q 89 71 110 50 q 132 28 163 28 q 195 28 216 50 q 238 71 238 103 q 238 134 216 156 q 195 177 163 177 q 132 177 110 156 q 89 134 89 103 z m 207 374 q 207 340 201 326 q 191 303 163 303 q 135 303 128 322 q 120 341 120 374 l 120 551 q 120 586 125 598 q 134 621 163 621 q 192 621 201 599 q 207 585 207 551 z m 204 103 q 204 86 192 74 q 180 62 163 62 q 146 62 134 74 q 122 86 122 103 q 122 120 134 132 q 146 144 163 144 q 180 144 192 132 q 204 120 204 103 z"},"/":{"x_min":0,"x_max":573,"ha":573,"o":"m 7 1 q 7 41 92 198 q 145 296 262 490 q 379 685 381 689 q 401 722 418 737 q 441 757 473 757 q 511 757 539 730 q 567 703 567 665 q 567 626 481 468 q 420 356 311 175 q 251 76 192 -22 q 174 -54 156 -70 q 133 -90 101 -90 q 63 -90 35 -64 q 7 -38 7 1 z m 101 -57 q 123 -57 139 -41 q 149 -31 163 -6 q 219 90 276 186 q 381 364 446 483 q 534 643 534 665 q 534 689 516 706 q 498 723 473 723 q 457 723 442 713 q 427 703 410 673 q 352 576 295 479 q 187 296 127 187 q 40 28 40 1 q 40 -22 58 -40 q 77 -57 101 -57 z m 82 -16 l 73 1 q 85 48 164 189 q 219 288 319 455 q 435 649 439 656 q 448 673 453 678 q 458 684 473 690 l 492 683 l 500 665 q 495 646 485 630 l 134 10 q 127 -3 124 -7 q 117 -16 101 -23 z"},"[":{"x_min":0,"x_max":500,"ha":500,"o":"m 467 10 q 467 -43 430 -69 q 397 -91 341 -91 l 222 -91 q 146 -91 112 -58 q 79 -26 79 51 l 79 616 q 79 693 112 725 q 145 757 222 757 l 341 757 q 397 757 429 736 q 467 709 467 656 q 467 587 409 566 q 377 555 293 555 l 293 112 q 378 112 408 102 q 467 80 467 10 z m 259 589 q 269 589 296 588 q 322 587 324 587 q 373 587 397 598 q 433 614 433 656 q 433 694 408 709 q 382 724 341 724 l 222 724 q 159 724 136 702 q 112 679 112 616 l 112 51 q 112 -13 136 -36 q 159 -58 222 -58 l 341 -58 q 383 -58 405 -45 q 433 -29 433 10 q 433 52 397 68 q 371 80 321 80 q 309 80 288 79 q 266 78 259 78 z m 399 10 q 399 -12 384 -18 q 370 -24 345 -24 l 219 -24 q 175 -24 160 -10 q 146 3 146 48 l 146 619 q 146 664 160 677 q 174 690 219 690 l 345 690 q 371 690 385 684 q 399 679 399 656 q 399 634 372 626 q 345 617 305 617 q 278 617 258 618 q 239 620 226 622 l 226 44 q 229 44 260 46 q 292 49 307 49 q 348 49 374 41 q 399 33 399 10 z"},"6":{"x_min":0,"x_max":582,"ha":582,"o":"m 551 243 q 551 135 477 59 q 403 -17 294 -17 q 183 -17 108 55 q 33 127 33 237 q 33 292 58 348 q 74 384 116 447 q 156 513 197 579 q 263 671 322 671 q 366 671 398 640 q 431 610 431 566 q 431 538 414 508 q 411 502 394 477 q 468 447 510 386 q 551 324 551 243 z m 397 566 q 397 595 374 616 q 352 638 322 638 q 278 638 215 546 q 155 445 144 428 q 108 375 91 339 q 67 287 67 237 q 67 141 132 79 q 197 17 294 17 q 388 17 453 83 q 518 149 518 243 q 518 321 469 384 q 420 446 343 455 q 359 481 376 508 q 397 544 397 566 z m 485 243 q 485 163 430 106 q 374 50 294 50 q 211 50 156 102 q 100 155 100 237 q 100 304 194 454 q 288 605 322 605 q 339 605 352 594 q 364 582 364 565 q 364 555 342 516 q 314 470 286 425 q 375 425 430 378 q 485 332 485 243 z m 187 243 q 187 199 218 168 q 249 137 293 137 q 337 137 368 168 q 399 199 399 243 q 399 287 368 318 q 337 349 293 349 q 249 349 218 318 q 187 287 187 243 z m 365 243 q 365 214 344 192 q 323 170 293 170 q 263 170 242 192 q 220 213 220 243 q 220 273 241 294 q 262 315 293 315 q 323 315 344 294 q 365 273 365 243 z m 253 243 q 253 226 264 215 q 275 204 293 204 q 310 204 321 215 q 332 226 332 243 q 332 259 320 270 q 309 282 293 282 q 276 282 264 271 q 253 260 253 243 z"},"r":{"x_min":0,"x_max":480,"ha":480,"o":"m 433 76 q 433 39 408 14 q 384 -12 347 -12 q 301 -12 256 51 q 229 92 218 108 q 218 53 203 26 q 182 -11 131 -11 q 84 -11 64 20 q 43 50 43 98 l 43 414 q 43 476 69 501 q 95 526 157 526 l 228 526 q 321 526 383 476 q 450 422 450 329 q 450 286 432 248 q 413 209 379 180 q 396 156 414 133 q 433 103 433 76 z m 424 329 q 424 411 365 457 q 311 499 227 499 l 157 499 q 106 499 88 482 q 69 464 69 414 l 69 98 q 69 60 80 41 q 95 15 131 15 q 169 15 183 46 q 193 68 193 113 q 193 126 192 138 q 192 150 192 162 l 214 162 q 240 120 266 79 q 312 15 347 15 q 372 15 389 33 q 406 51 406 76 q 406 97 380 136 q 349 178 342 188 q 380 208 402 246 q 424 285 424 329 z m 131 42 q 114 42 105 54 q 96 65 96 98 l 96 414 q 96 452 108 462 q 119 473 157 473 l 226 473 q 299 473 345 439 q 397 400 397 329 q 397 283 372 250 q 347 216 302 197 q 329 159 357 122 q 380 87 380 76 q 380 63 370 52 q 361 42 348 42 q 325 42 277 112 q 231 185 228 189 l 165 189 q 165 187 167 164 q 169 141 169 123 q 169 88 161 65 q 153 42 131 42 z m 165 248 l 236 248 q 277 248 304 269 q 330 290 330 330 q 330 372 302 393 q 274 414 230 414 l 165 414 z m 192 387 l 230 387 q 265 387 284 374 q 304 362 304 330 q 304 299 282 285 q 264 274 231 274 l 192 274 z m 233 301 q 254 301 266 306 q 277 311 277 330 q 277 349 265 354 q 253 360 230 360 l 218 360 l 218 301 z"},"2":{"x_min":0,"x_max":561,"ha":561,"o":"m 516 106 q 516 50 476 23 q 442 0 384 0 l 189 0 q 123 0 89 17 q 40 41 40 101 q 40 144 103 215 q 114 227 222 337 q 290 406 296 437 l 288 456 l 268 463 q 250 458 216 417 q 186 381 138 381 q 93 381 62 412 q 32 444 32 490 q 32 572 110 630 q 181 683 267 683 q 373 683 444 610 q 516 538 516 432 q 516 356 461 286 q 443 263 396 213 q 476 196 496 174 q 516 152 516 106 z m 483 432 q 483 523 421 586 q 359 649 267 649 q 196 649 134 606 q 65 558 65 489 q 65 457 85 436 q 105 415 138 415 q 174 415 206 456 q 238 497 268 497 q 293 497 311 480 q 329 463 329 437 q 329 402 263 332 q 202 270 141 208 q 74 136 74 101 q 74 57 113 42 q 136 33 189 33 l 384 33 q 428 33 452 47 q 483 65 483 106 q 483 142 461 160 q 434 182 365 182 q 352 182 340 182 q 329 181 318 181 q 422 288 425 292 q 483 364 483 432 z m 450 106 q 450 81 428 72 q 415 67 384 67 l 183 67 q 148 67 136 70 q 107 77 107 101 q 107 125 173 192 q 280 300 295 317 q 362 393 362 437 q 362 476 335 503 q 308 530 268 530 q 223 530 190 489 q 157 448 138 448 q 120 448 109 460 q 98 472 98 489 q 98 542 157 581 q 210 616 267 616 q 346 616 398 563 q 450 510 450 432 q 450 359 330 234 q 286 190 243 146 q 252 146 290 148 q 327 151 341 151 q 391 151 420 142 q 450 132 450 106 z"},"{":{"x_min":0,"x_max":500,"ha":500,"o":"m 312 724 q 277 721 251 711 q 225 701 210 685 q 182 652 182 596 l 182 481 q 180 443 168 423 q 155 402 133 395 q 84 378 81 338 q 81 298 130 278 q 157 269 168 252 l 167 252 q 172 243 175 232 q 178 221 177 205 l 177 89 q 178 11 208 -19 q 240 -48 299 -57 l 348 -61 q 407 -66 413 -12 q 419 48 357 51 l 311 54 l 312 54 q 295 55 288 59 q 284 67 284 89 l 284 205 q 283 238 280 260 q 276 282 271 296 q 263 316 232 338 q 261 361 271 386 l 270 386 q 284 415 286 481 l 286 595 q 286 598 287 602 q 288 606 290 608 q 302 617 334 620 q 342 621 352 622 q 362 622 371 623 q 400 625 412 642 q 424 658 421 683 q 419 707 400 719 q 382 731 351 728 z m 353 703 q 395 706 397 680 q 401 650 369 649 l 332 646 q 293 641 277 629 q 262 617 261 596 l 261 481 q 260 423 247 395 q 234 366 188 337 q 237 309 247 285 q 257 262 259 205 l 259 89 q 259 57 270 44 q 281 32 309 28 l 356 25 q 391 24 388 -8 q 383 -38 351 -37 l 302 -32 q 251 -25 227 -3 q 205 22 203 89 l 203 205 q 204 243 189 266 q 173 290 139 300 q 106 314 106 337 q 107 360 141 373 q 174 385 190 410 q 206 434 208 481 l 208 596 q 208 642 229 669 q 253 693 314 700 z m 348 756 q 390 758 418 740 q 446 722 449 687 q 452 649 433 624 q 414 599 372 596 l 357 596 q 352 595 347 595 q 342 595 337 594 q 323 593 312 589 l 312 480 q 310 410 296 375 l 295 375 q 290 365 286 356 q 281 347 273 339 q 288 324 295 307 q 301 290 306 265 q 310 240 311 205 l 311 89 q 311 82 310 81 l 311 81 q 311 80 312 80 l 314 80 l 312 80 q 324 79 336 78 q 349 78 359 78 q 403 75 424 52 q 444 28 439 -14 q 435 -55 410 -73 q 386 -91 346 -89 q 335 -88 321 -86 q 307 -85 296 -84 q 226 -75 188 -38 q 151 -1 150 88 l 150 205 q 151 228 145 239 l 146 237 q 143 241 137 245 q 131 249 120 252 q 54 280 54 339 q 59 397 124 421 q 129 423 136 428 q 142 432 145 437 q 153 450 154 482 l 154 596 q 154 663 189 703 q 208 722 238 735 q 269 748 310 752 z"},"9":{"x_min":0,"x_max":582,"ha":582,"o":"m 30 422 q 30 530 104 606 q 178 682 287 682 q 399 682 474 610 q 548 539 548 428 q 548 373 523 317 q 507 281 465 218 q 411 134 357 51 q 307 -6 259 -6 q 216 -6 184 24 q 151 55 151 99 q 151 122 162 146 q 165 154 187 189 q 114 218 72 280 q 30 342 30 422 z m 184 99 q 184 70 206 48 q 229 27 259 27 q 303 27 366 119 q 427 221 438 237 q 485 307 500 348 q 515 388 515 428 q 515 525 450 586 q 384 648 287 648 q 193 648 128 582 q 63 516 63 422 q 63 343 112 282 q 161 220 238 210 q 216 176 205 157 q 184 121 184 99 z m 97 422 q 97 503 152 559 q 207 615 287 615 q 370 615 426 562 q 481 510 481 428 q 481 359 387 210 q 293 60 259 60 q 242 60 230 72 q 217 83 217 100 q 217 115 252 172 q 274 206 296 240 q 208 240 154 286 q 97 335 97 422 z m 395 422 q 395 466 364 497 q 333 528 289 528 q 245 528 214 497 q 183 466 183 422 q 183 378 214 347 q 245 316 289 316 q 333 316 364 347 q 395 378 395 422 z m 216 422 q 216 453 237 474 q 258 495 289 495 q 319 495 340 474 q 361 453 361 422 q 361 392 340 371 q 319 350 289 350 q 258 350 237 371 q 216 392 216 422 z m 328 422 q 328 440 317 451 q 306 462 289 462 q 272 462 261 451 q 250 440 250 422 q 250 405 261 394 q 272 383 289 383 q 306 383 317 394 q 328 405 328 422 z"}," ":{"x_min":0,"x_max":330,"ha":330,"o":""},"I":{"x_min":0,"x_max":323,"ha":323,"o":"m 162 -5 q 106 -5 77 35 q 52 70 52 128 l 52 539 q 52 596 77 631 q 106 671 162 671 q 218 671 246 632 q 271 597 271 539 l 271 128 q 271 69 247 35 q 219 -5 162 -5 z m 162 28 q 204 28 223 59 q 238 84 238 128 l 238 538 q 238 584 224 607 q 205 638 162 638 q 118 638 102 611 q 85 584 85 538 l 85 128 q 85 83 100 59 q 119 28 162 28 z m 162 62 q 135 62 126 80 q 118 98 118 128 l 118 539 q 118 577 130 591 q 141 605 162 605 q 188 605 198 584 q 205 569 205 539 l 205 128 q 205 89 194 76 q 183 62 162 62 z"},"H":{"x_min":0,"x_max":676,"ha":676,"o":"m 271 239 q 271 229 272 202 q 273 175 273 159 q 273 63 241 26 q 214 -5 162 -5 q 105 -5 78 32 q 52 70 52 128 l 52 539 q 52 596 77 631 q 106 671 162 671 q 213 671 240 641 q 272 605 272 512 q 272 493 272 475 q 271 457 271 440 l 405 440 q 405 457 404 475 q 404 493 404 512 q 404 605 436 641 q 463 671 515 671 q 572 671 600 632 q 625 597 625 539 l 625 128 q 625 70 600 35 q 571 -5 515 -5 q 448 -5 422 47 q 403 85 403 159 q 403 174 404 201 q 405 228 405 239 z m 515 28 q 557 28 576 60 q 591 86 591 132 l 591 535 q 591 581 577 606 q 559 638 515 638 q 469 638 449 595 q 434 562 434 503 q 434 482 436 449 q 438 416 438 407 l 238 407 q 238 420 240 458 q 243 495 243 507 q 243 565 228 597 q 209 638 162 638 q 118 638 102 610 q 85 582 85 535 l 85 128 q 85 83 100 59 q 119 28 162 28 q 209 28 228 72 q 243 106 243 168 q 243 196 241 223 q 239 250 238 273 l 438 273 q 438 260 436 221 q 433 182 433 169 q 433 107 448 73 q 468 28 515 28 z m 205 306 l 205 132 q 205 100 199 85 q 190 62 162 62 q 134 62 124 85 q 118 99 118 132 l 118 535 q 118 567 124 581 q 134 605 162 605 q 190 605 199 582 q 205 567 205 535 l 205 373 l 472 373 l 472 535 q 472 569 477 581 q 487 605 515 605 q 543 605 552 582 q 558 567 558 535 l 558 132 q 558 100 552 85 q 543 62 515 62 q 487 62 480 81 q 472 100 472 132 l 472 306 z"},"4":{"x_min":0,"x_max":606,"ha":606,"o":"m 385 -5 q 327 -5 301 37 q 279 72 279 134 q 264 134 249 134 q 234 133 218 133 q 135 133 94 151 q 33 178 33 248 q 33 283 56 327 q 62 339 82 370 l 221 585 q 258 644 282 656 q 305 667 377 667 q 449 667 478 620 q 501 583 501 509 q 501 482 498 444 q 491 356 491 340 q 533 340 560 310 q 588 281 588 237 q 588 194 561 166 q 534 138 491 134 q 491 72 470 38 q 444 -5 385 -5 z m 555 237 q 555 277 528 294 q 500 310 457 310 l 457 543 q 457 606 439 620 q 421 633 354 633 q 298 633 279 613 q 276 609 249 567 l 110 352 q 85 312 81 303 q 66 273 66 248 q 66 199 116 179 q 154 164 221 164 q 249 164 270 165 q 292 166 312 167 l 312 138 q 312 86 322 64 q 338 28 385 28 q 431 28 447 64 q 457 87 457 139 l 457 165 q 500 165 524 179 q 555 197 555 237 z m 100 248 q 100 274 146 352 q 179 409 239 496 q 286 564 307 591 q 316 596 329 598 q 342 600 356 600 l 378 600 q 401 600 417 595 q 423 585 425 548 q 427 512 427 456 q 427 395 426 352 q 425 310 424 275 q 445 276 458 276 q 488 276 504 268 q 521 261 521 237 q 521 214 504 207 q 488 200 459 200 q 449 200 440 200 q 432 200 424 201 q 424 185 425 170 q 426 154 427 141 q 427 105 420 87 q 410 62 385 62 q 361 62 352 84 q 342 106 342 141 q 342 160 343 174 q 344 188 345 201 q 331 199 302 197 q 274 195 241 195 q 180 195 145 205 q 100 218 100 248 z m 184 275 l 345 275 l 345 526 z m 312 309 l 245 309 l 312 413 z"},"~":{"x_min":0,"x_max":500,"ha":500,"o":"m 183 730 q 159 730 137 718 l 138 719 q 117 709 87 673 q 77 663 74 654 q 71 644 72 633 q 77 606 85 598 q 113 579 132 582 q 155 589 171 607 q 187 628 195 628 q 202 628 235 606 q 287 578 324 577 q 352 577 374 592 q 383 595 394 604 q 406 614 419 628 q 433 645 433 666 q 433 686 419 703 q 399 723 374 721 q 366 719 355 712 q 344 705 335 694 q 333 692 328 689 q 324 686 322 685 q 306 687 276 704 q 230 730 195 730 z m 195 704 q 224 704 264 682 q 306 660 325 660 q 337 660 355 679 q 367 694 377 695 q 390 696 399 686 q 408 678 408 666 q 408 656 394 638 q 376 620 363 614 q 344 603 325 603 q 293 604 249 628 q 212 653 195 653 q 176 653 152 624 q 141 612 129 607 q 118 605 108 612 q 100 619 97 632 q 96 646 106 657 q 132 688 149 696 q 164 704 183 704 q 188 704 195 704 z m 195 757 q 239 757 290 728 q 298 723 304 720 q 311 716 316 714 q 328 729 342 738 q 357 746 370 748 q 389 750 407 743 q 425 736 440 721 q 460 698 460 666 q 460 652 456 638 q 451 624 439 610 q 425 595 412 584 q 399 572 388 567 q 372 557 356 553 q 340 549 323 549 q 300 550 274 558 q 249 567 221 582 q 211 588 205 592 q 199 596 197 598 q 197 595 191 589 q 180 578 168 570 q 155 561 139 556 q 107 548 71 573 q 62 581 54 596 q 47 610 45 628 q 40 663 66 690 q 81 709 97 724 q 113 738 127 744 q 141 752 154 754 q 168 757 183 757 z"},"D":{"x_min":0,"x_max":698,"ha":698,"o":"m 194 0 q 118 0 85 32 q 52 64 52 140 l 52 527 q 52 603 85 635 q 118 667 194 667 l 312 667 q 461 667 561 576 q 665 481 665 334 q 665 175 553 84 q 449 0 287 0 z m 194 633 q 132 633 108 612 q 85 590 85 527 l 85 140 q 85 79 109 56 q 133 33 194 33 l 287 33 q 435 33 528 107 q 631 189 631 334 q 631 468 540 550 q 448 633 312 633 z m 118 140 l 118 527 q 118 574 132 587 q 146 600 194 600 l 312 600 q 433 600 516 528 q 598 455 598 334 q 598 206 507 134 q 423 67 293 67 l 194 67 q 146 67 132 80 q 118 92 118 140 z m 205 138 l 307 138 q 394 138 453 192 q 512 246 512 333 q 512 420 452 474 q 391 528 303 528 l 205 528 z m 302 495 q 378 495 428 452 q 479 408 479 333 q 479 260 430 216 q 381 172 307 172 l 238 172 l 238 495 z m 271 205 l 307 205 q 367 205 406 239 q 445 273 445 333 q 445 393 404 427 q 363 461 302 461 l 271 461 z"},"^":{"x_min":0,"x_max":500,"ha":500,"o":"m 182 486 q 171 468 156 460 q 138 450 113 450 q 84 450 62 464 q 41 478 41 498 q 41 516 72 567 q 92 597 136 658 q 179 718 183 724 q 193 740 209 748 q 225 757 250 757 q 276 757 292 749 q 307 741 318 724 q 366 660 398 614 q 460 524 460 498 q 460 478 438 464 q 417 450 388 450 q 364 450 347 460 q 330 469 319 486 l 250 599 z m 339 491 q 346 480 358 472 q 371 465 388 465 q 409 465 424 474 q 439 484 439 498 q 439 512 408 561 q 385 596 345 653 q 322 686 299 717 q 291 729 280 736 q 269 742 250 742 q 232 742 220 736 q 209 729 202 717 q 157 655 125 607 q 62 515 62 498 q 62 484 77 474 q 92 465 113 465 q 129 465 142 472 q 154 479 162 491 l 250 638 z m 142 497 q 138 491 135 489 q 126 480 113 480 q 84 480 84 498 q 84 509 147 603 q 163 628 222 712 q 228 720 234 724 q 240 727 250 727 q 260 727 267 724 q 274 720 278 713 q 283 706 321 651 q 363 588 384 556 q 417 506 417 498 q 417 491 408 486 q 400 480 388 480 q 378 480 370 485 q 363 490 359 497 l 250 676 z"},"0":{"x_min":0,"x_max":763,"ha":763,"o":"m 730 333 q 730 189 628 87 q 526 -15 381 -15 q 237 -15 135 87 q 33 189 33 333 q 33 477 136 580 q 238 682 381 682 q 525 682 628 580 q 730 477 730 333 z m 67 333 q 67 203 159 111 q 251 19 381 19 q 510 19 603 111 q 696 203 696 333 q 696 464 604 556 q 512 648 381 648 q 251 648 159 556 q 67 464 67 333 z m 663 333 q 663 216 581 134 q 499 52 381 52 q 264 52 182 134 q 100 216 100 333 q 100 450 182 532 q 265 615 381 615 q 498 615 580 532 q 663 450 663 333 z m 187 333 q 187 253 244 196 q 300 138 381 138 q 462 138 520 196 q 577 253 577 333 q 577 414 520 471 q 463 528 381 528 q 301 528 244 471 q 187 414 187 333 z m 543 333 q 543 267 496 219 q 449 171 381 171 q 314 171 267 218 q 220 265 220 333 q 220 399 267 447 q 314 495 381 495 q 447 495 495 448 q 543 401 543 333 z m 253 333 q 253 280 290 242 q 328 205 381 205 q 434 205 472 242 q 510 279 510 333 q 510 386 472 424 q 435 461 381 461 q 328 461 290 424 q 253 386 253 333 z"},"F":{"x_min":0,"x_max":537,"ha":537,"o":"m 162 -5 q 105 -5 78 32 q 52 69 52 127 l 52 532 q 52 603 86 634 q 119 666 190 666 l 397 666 q 452 666 486 642 q 525 614 525 560 q 525 495 472 469 q 435 451 359 451 q 342 451 312 452 q 282 453 271 453 l 271 433 q 287 433 304 433 q 320 433 337 434 q 402 434 435 417 q 480 394 480 333 q 480 285 452 261 q 418 232 328 232 q 313 232 298 232 q 284 232 271 233 q 271 220 272 188 q 273 157 273 156 q 273 62 241 26 q 214 -5 162 -5 z m 447 333 q 447 374 410 391 q 382 404 328 404 q 309 404 286 402 q 263 401 238 400 l 238 486 q 257 486 270 485 q 337 480 350 480 q 414 480 447 494 q 492 513 492 560 q 492 602 465 618 q 438 633 393 633 l 194 633 q 132 633 108 612 q 85 590 85 527 l 85 128 q 85 83 100 59 q 119 28 162 28 q 208 28 228 71 q 243 104 243 164 q 243 192 241 218 q 239 245 238 267 q 246 267 277 265 q 308 263 329 263 q 383 263 410 275 q 447 292 447 333 z m 205 132 q 205 100 199 85 q 190 62 162 62 q 134 62 124 85 q 118 99 118 132 l 118 531 q 118 574 132 587 q 147 600 191 600 l 397 600 q 425 600 442 592 q 458 585 458 560 q 458 535 437 526 q 422 520 393 520 l 205 520 l 205 367 l 356 367 q 383 367 398 362 q 414 356 414 333 q 414 311 395 304 q 384 300 356 300 l 205 300 z"},"`":{"x_min":0,"x_max":337,"ha":337,"o":"m 199 554 q 168 554 133 589 q 110 614 101 623 q 83 640 77 650 q 67 666 67 686 q 67 716 88 737 q 109 758 139 758 q 161 758 181 743 q 189 737 202 724 q 250 678 256 669 q 271 647 271 626 q 271 596 250 575 q 229 554 199 554 z m 248 626 q 248 648 214 682 q 200 695 186 708 q 172 722 166 726 q 153 735 139 735 q 119 735 104 721 q 89 707 89 686 q 89 663 123 629 q 145 610 151 604 q 163 592 174 584 q 186 577 199 577 q 219 577 234 592 q 248 606 248 626 z m 199 600 q 186 600 150 636 q 113 673 113 686 q 113 697 120 704 q 128 712 139 712 q 152 712 188 676 q 225 639 225 626 q 225 618 221 612 q 213 600 199 600 z"},"k":{"x_min":0,"x_max":481,"ha":481,"o":"m 363 531 q 398 531 424 505 q 450 479 450 443 q 450 404 393 343 q 328 282 315 268 q 357 228 400 188 q 467 119 467 79 q 467 41 442 16 q 418 -10 380 -10 q 333 -10 262 68 q 236 97 211 127 q 211 62 200 35 q 181 -10 124 -10 q 79 -10 58 19 q 36 48 36 95 l 36 425 q 36 471 58 501 q 79 531 124 531 q 175 531 195 493 q 211 463 211 409 q 244 445 277 482 q 327 531 363 531 z m 124 504 q 89 504 76 482 q 62 459 62 421 l 62 96 q 62 60 74 41 q 90 16 124 16 q 161 16 176 50 q 188 76 188 122 q 188 144 187 162 q 186 179 185 195 q 240 132 295 70 q 351 16 381 16 q 407 16 424 34 q 441 52 441 78 q 441 112 363 190 q 282 264 278 268 q 328 318 379 368 q 423 419 423 443 q 423 467 406 486 q 388 504 364 504 q 331 504 259 427 q 222 384 185 342 q 185 352 186 378 q 187 403 187 405 q 187 463 170 484 q 154 504 124 504 z m 363 477 q 371 477 380 472 q 388 467 392 460 l 397 443 q 388 410 325 348 q 283 308 241 268 q 287 226 329 184 q 414 99 414 78 q 414 63 404 52 q 395 42 381 42 q 361 42 296 108 q 227 185 158 262 l 158 99 q 158 74 153 62 q 145 43 124 43 q 103 43 96 58 q 89 73 89 96 l 89 424 q 89 449 96 463 q 102 477 124 477 q 149 477 155 451 q 158 437 158 421 l 158 274 q 212 338 252 382 q 331 468 363 477 z"},"u":{"x_min":0,"x_max":525,"ha":525,"o":"m 489 240 q 489 123 439 57 q 382 -19 266 -19 q 151 -19 94 57 q 43 125 43 241 l 43 420 q 43 469 61 496 q 83 530 131 530 q 186 530 207 483 q 223 447 223 374 q 223 351 222 318 q 220 285 219 246 q 219 199 228 176 q 238 152 266 152 q 294 152 304 178 q 314 205 314 254 q 314 274 312 326 q 310 377 310 383 q 310 453 326 486 q 347 530 401 530 q 447 530 470 497 q 489 469 489 420 z m 266 126 q 222 126 206 160 q 191 195 191 256 q 191 286 194 334 q 196 382 196 388 q 196 444 185 469 q 170 503 131 503 q 95 503 82 481 q 70 459 70 420 l 69 245 q 69 137 111 78 q 160 8 266 8 q 372 8 421 78 q 463 137 463 245 l 462 420 q 462 457 451 477 q 436 503 401 503 q 366 503 353 480 q 340 457 340 420 l 340 246 q 340 191 330 167 q 313 126 266 126 z m 436 240 q 436 147 400 96 q 357 35 266 35 q 176 35 133 95 q 96 147 96 240 l 96 420 q 96 445 102 460 q 109 476 131 476 q 153 476 160 453 q 168 430 168 386 q 168 368 166 318 q 164 269 164 263 q 164 187 182 149 q 206 99 266 99 q 326 99 350 150 q 368 189 368 266 q 368 289 366 321 q 365 353 364 392 q 364 435 372 456 q 379 476 401 476 q 423 476 431 458 q 436 446 436 420 z"},"]":{"x_min":0,"x_max":500,"ha":500,"o":"m 207 555 q 122 555 93 565 q 33 586 33 656 q 33 709 69 733 q 105 757 160 757 l 279 757 q 355 757 389 725 q 423 693 423 616 l 423 51 q 423 -25 390 -58 q 357 -91 279 -91 l 160 -91 q 103 -91 71 -70 q 33 -43 33 10 q 33 78 92 100 q 125 112 207 112 z m 67 10 q 67 -29 96 -45 q 117 -58 160 -58 l 279 -58 q 342 -58 366 -35 q 390 -12 390 51 l 390 616 q 390 679 366 702 q 343 724 279 724 l 160 724 q 117 724 96 711 q 67 695 67 656 q 67 615 102 599 q 128 587 177 587 q 190 587 212 588 q 235 589 242 589 l 242 78 q 235 78 214 79 q 192 80 180 80 q 127 80 103 69 q 67 53 67 10 z m 275 622 q 256 620 232 618 q 207 617 195 617 q 155 617 128 625 q 101 633 101 656 q 101 678 116 684 q 130 690 156 690 l 282 690 q 328 690 342 677 q 356 664 356 619 l 356 48 q 356 3 342 -10 q 327 -24 282 -24 l 156 -24 q 131 -24 119 -19 q 101 -11 101 10 q 101 33 127 41 q 153 49 194 49 q 221 49 241 47 q 261 45 275 44 z"},"U":{"x_min":0,"x_max":648,"ha":648,"o":"m 603 310 q 603 164 540 81 q 468 -14 324 -14 q 181 -14 109 81 q 45 166 45 310 l 45 535 q 45 596 68 630 q 96 671 155 671 q 224 671 250 613 q 270 569 270 478 q 270 441 269 418 q 265 325 265 320 q 265 259 276 230 q 288 200 324 200 q 360 200 374 236 q 385 264 385 327 q 385 358 382 418 q 380 477 380 490 q 380 576 400 617 q 426 671 493 671 q 551 671 579 630 q 603 595 603 535 z m 324 167 q 269 167 247 214 q 230 251 230 329 q 230 356 233 412 q 236 468 236 495 q 236 563 221 596 q 202 638 155 638 q 111 638 93 607 q 79 583 79 535 l 78 316 q 78 182 130 108 q 192 20 324 20 q 455 20 517 107 q 570 182 570 316 l 569 535 q 569 581 555 606 q 537 638 493 638 q 449 638 432 610 q 416 582 416 535 l 417 317 q 417 249 404 218 q 383 167 324 167 z m 536 316 q 536 196 493 131 q 441 53 324 53 q 208 53 156 131 q 112 197 112 316 l 112 535 q 112 569 117 581 q 127 605 155 605 q 183 605 194 573 q 202 549 202 492 q 202 460 201 438 q 197 352 197 340 q 197 243 219 196 q 249 133 324 133 q 400 133 430 197 q 452 244 452 342 q 452 381 451 405 q 447 500 447 502 q 447 553 456 579 q 465 605 493 605 q 521 605 530 582 q 536 567 536 535 z"},"o":{"x_min":0,"x_max":610,"ha":610,"o":"m 583 260 q 583 144 502 62 q 420 -19 304 -19 q 190 -19 108 63 q 26 145 26 260 q 26 375 107 457 q 188 539 304 539 q 419 539 501 457 q 583 375 583 260 z m 53 260 q 53 155 126 82 q 200 8 304 8 q 408 8 482 82 q 556 156 556 260 q 556 365 482 438 q 409 512 304 512 q 201 512 127 438 q 53 364 53 260 z m 530 260 q 530 167 464 101 q 398 35 304 35 q 211 35 145 101 q 79 167 79 260 q 79 353 145 419 q 211 485 304 485 q 396 485 463 419 q 530 353 530 260 z m 149 260 q 149 195 194 150 q 240 104 304 104 q 369 104 415 149 q 461 194 461 260 q 461 324 415 370 q 369 416 304 416 q 239 416 194 371 q 149 326 149 260 z m 434 260 q 434 207 396 169 q 358 131 304 131 q 251 131 213 169 q 175 207 175 260 q 175 313 212 352 q 250 390 304 390 q 358 390 396 352 q 434 314 434 260 z m 202 260 q 202 219 232 188 q 262 157 304 157 q 347 157 377 187 q 407 217 407 260 q 407 302 376 332 q 346 363 304 363 q 262 363 232 333 q 202 303 202 260 z"},"N":{"x_min":0,"x_max":697,"ha":697,"o":"m 162 -5 q 104 -5 76 36 q 52 72 52 132 l 52 534 q 52 595 76 630 q 105 671 164 671 q 209 671 269 612 q 310 572 366 494 q 395 452 425 410 q 425 439 424 460 q 423 481 422 500 q 422 577 441 616 q 468 671 535 671 q 592 671 620 632 q 645 597 645 539 l 645 127 q 645 68 622 35 q 594 -5 537 -5 q 493 -5 431 56 q 389 97 331 177 q 301 219 271 261 q 271 230 272 208 q 273 185 274 166 q 274 65 242 27 q 215 -5 162 -5 z m 466 74 q 478 59 488 50 q 511 28 537 28 q 580 28 598 60 q 612 85 612 132 l 612 535 q 612 581 598 606 q 580 638 535 638 q 491 638 474 610 q 458 582 458 535 l 458 315 l 239 588 q 222 609 216 615 q 193 638 163 638 q 120 638 102 608 q 85 579 85 534 l 85 132 q 85 85 99 61 q 118 28 162 28 q 205 28 223 60 q 238 86 238 132 l 238 355 z m 205 132 q 205 100 199 85 q 190 62 162 62 q 135 62 126 80 q 118 98 118 128 l 118 538 q 118 567 128 586 q 137 605 163 605 q 185 605 265 511 q 330 435 408 332 q 450 276 492 220 l 492 535 q 492 566 498 581 q 508 605 535 605 q 563 605 573 582 q 579 568 579 535 l 579 132 q 579 99 574 86 q 565 62 538 62 q 516 62 436 155 q 383 216 293 334 q 249 391 205 449 z"},"+":{"x_min":0,"x_max":600,"ha":600,"o":"m 299 638 q 324 638 340 630 q 356 623 365 609 q 374 595 378 575 q 381 555 381 530 l 382 433 l 479 433 q 541 433 564 411 q 587 389 587 352 q 587 327 574 308 q 560 288 535 279 l 536 279 q 525 275 512 273 q 499 271 479 271 l 382 271 l 382 237 q 382 221 382 205 q 383 189 383 173 q 383 111 362 88 q 341 65 303 65 q 279 65 260 76 q 242 87 232 112 q 221 137 221 173 l 220 271 l 123 271 q 91 271 70 276 q 49 282 37 292 q 25 302 20 317 q 15 332 15 352 q 15 402 44 418 q 73 433 123 433 l 220 433 q 220 441 220 450 q 219 458 219 467 l 219 530 q 219 594 239 616 q 259 638 299 638 z m 299 585 q 317 585 322 570 q 328 555 328 530 l 329 379 l 479 379 q 510 379 522 372 q 534 365 534 352 q 534 334 517 329 q 505 323 479 323 l 329 323 l 330 173 q 330 142 323 130 q 316 119 303 119 q 285 119 280 136 q 274 148 274 173 l 273 323 l 123 323 q 91 323 80 330 q 68 338 68 352 q 68 368 82 374 q 97 379 123 379 l 273 379 l 272 530 q 272 562 278 574 q 285 585 299 585 z m 299 611 q 273 611 260 594 q 247 578 247 530 q 247 498 248 468 q 248 437 248 405 l 123 405 q 85 405 64 395 q 42 385 42 352 q 42 326 58 312 q 75 298 123 298 l 248 298 l 248 173 q 248 143 258 123 q 264 106 276 100 q 287 93 303 93 q 328 93 342 110 q 355 127 355 173 q 355 205 354 236 q 354 267 354 298 l 479 298 q 510 298 525 305 q 560 318 560 352 q 560 376 542 390 q 525 405 479 405 l 354 405 l 353 530 q 353 567 342 589 q 331 611 299 611 z"},"G":{"x_min":0,"x_max":693,"ha":693,"o":"m 420 204 q 377 204 346 234 q 314 263 314 307 q 314 361 350 386 q 385 410 441 410 l 537 410 q 608 410 635 382 q 662 354 662 282 l 662 174 q 662 70 577 22 q 509 -16 394 -16 q 242 -16 138 84 q 33 183 33 334 q 33 480 136 582 q 240 683 387 683 q 464 683 524 653 q 600 615 600 545 q 600 500 572 468 q 543 437 498 437 q 480 437 455 445 q 398 463 382 463 q 330 463 291 424 q 252 385 252 333 q 252 275 295 237 q 338 199 397 199 q 415 199 432 205 z m 482 185 q 441 167 397 167 q 323 167 271 213 q 219 259 219 333 q 219 399 267 448 q 315 497 382 497 q 401 497 455 479 q 482 470 498 470 q 528 470 547 492 q 566 514 566 544 q 566 600 501 628 q 452 649 387 649 q 254 649 160 558 q 67 466 67 334 q 67 196 161 106 q 255 17 395 17 q 495 17 552 46 q 628 85 628 174 l 628 282 q 628 338 610 357 q 592 376 537 376 l 441 376 q 400 376 377 363 q 347 346 347 307 q 347 256 394 242 q 417 235 482 235 z m 380 306 q 380 329 398 336 q 415 343 441 343 l 537 343 q 561 343 584 337 q 591 329 593 314 q 595 300 595 287 l 595 174 q 595 101 529 72 q 481 51 395 51 q 269 51 184 130 q 100 209 100 334 q 100 453 184 534 q 267 616 387 616 q 435 616 475 602 q 533 582 533 543 q 533 527 524 516 q 514 504 498 504 q 480 504 442 517 q 404 530 382 530 q 301 530 244 472 q 186 413 186 333 q 186 247 248 190 q 310 133 397 133 q 457 133 515 161 l 515 269 q 507 269 486 268 q 465 267 460 267 q 426 267 403 275 q 380 283 380 306 z"},"q":{"x_min":0,"x_max":613,"ha":613,"o":"m 591 69 q 591 34 566 8 q 540 -19 504 -19 q 484 -19 466 -10 q 449 -2 436 13 q 407 -3 374 -11 q 342 -19 307 -19 q 193 -19 111 63 q 29 145 29 260 q 29 375 110 457 q 191 539 307 539 q 422 539 504 457 q 586 375 586 259 q 586 238 578 212 q 558 147 558 139 q 565 132 568 128 q 591 99 591 69 z m 559 262 q 559 364 485 438 q 411 512 307 512 q 203 512 129 438 q 55 364 55 260 q 55 156 129 82 q 203 8 306 8 q 340 8 374 18 q 408 27 440 45 q 459 26 468 20 q 486 8 504 8 q 528 8 546 26 q 564 44 564 69 q 564 90 546 112 q 538 122 526 134 q 543 161 551 194 q 559 228 559 262 z m 538 69 q 538 55 528 45 q 518 35 504 35 q 493 35 479 46 q 475 49 443 81 q 418 60 379 48 q 340 35 305 35 q 212 35 147 101 q 82 167 82 260 q 82 353 148 419 q 214 485 307 485 q 399 485 466 420 q 532 354 532 263 q 532 226 522 190 q 513 155 492 129 q 516 107 527 93 q 538 79 538 69 z m 151 260 q 151 195 196 150 q 242 104 307 104 q 372 104 418 150 q 463 195 463 260 q 463 325 418 370 q 372 416 307 416 q 242 416 196 370 q 151 325 151 260 z m 436 260 q 436 207 398 169 q 360 131 307 131 q 254 131 216 169 q 178 207 178 260 q 178 313 216 352 q 253 390 307 390 q 360 390 398 352 q 436 314 436 260 z m 205 260 q 205 219 235 188 q 265 157 307 157 q 349 157 380 188 q 410 218 410 260 q 410 302 380 332 q 349 363 307 363 q 265 363 235 333 q 205 303 205 260 z"},"d":{"x_min":0,"x_max":548,"ha":548,"o":"m 145 -7 q 84 -7 58 18 q 31 44 31 105 l 31 415 q 31 476 58 502 q 84 527 145 527 l 239 527 q 358 527 440 452 q 521 378 521 261 q 521 133 432 60 q 350 -7 219 -7 z m 145 500 q 95 500 76 482 q 58 465 58 415 l 58 105 q 58 56 77 38 q 96 20 145 20 l 219 20 q 338 20 412 79 q 495 145 495 261 q 495 368 421 434 q 347 500 239 500 z m 84 105 l 84 415 q 84 453 95 463 q 106 473 145 473 l 239 473 q 336 473 402 415 q 468 357 468 261 q 468 158 395 100 q 328 47 224 47 l 145 47 q 106 47 95 56 q 84 66 84 105 z m 154 104 l 235 104 q 305 104 352 147 q 399 190 399 260 q 399 330 351 373 q 303 416 232 416 l 154 416 z m 231 389 q 291 389 332 354 q 372 320 372 260 q 372 201 333 166 q 294 131 235 131 l 180 131 l 180 389 z m 207 157 l 235 157 q 284 157 315 184 q 346 211 346 260 q 346 309 314 336 q 281 363 231 363 l 207 363 z"},"1":{"x_min":0,"x_max":370,"ha":370,"o":"m 17 566 q 17 627 62 650 q 95 667 161 667 q 237 667 270 635 q 303 603 303 527 l 303 127 q 303 70 278 35 q 249 -5 193 -5 q 135 -5 107 36 q 83 71 83 132 l 83 473 q 53 484 35 509 q 17 534 17 566 z m 117 132 q 117 86 131 61 q 150 28 193 28 q 235 28 254 58 q 270 83 270 127 l 270 531 q 270 597 237 618 q 213 633 141 633 q 87 633 66 613 q 50 598 50 566 q 50 538 68 520 q 87 503 117 500 z m 83 566 q 83 589 98 594 q 113 600 141 600 l 164 600 q 209 600 223 588 q 237 575 237 531 l 237 128 q 237 90 226 76 q 214 62 193 62 q 165 62 158 81 q 150 100 150 132 l 150 533 l 136 533 q 109 533 100 537 q 83 544 83 566 z"},"5":{"x_min":0,"x_max":546,"ha":546,"o":"m 285 456 l 290 456 q 319 456 344 452 q 368 449 391 440 q 452 416 486 360 q 521 304 521 236 q 521 124 446 54 q 372 -15 259 -15 q 175 -15 107 23 q 25 69 25 146 q 25 188 55 219 q 85 250 127 250 q 155 250 183 234 q 245 199 259 199 q 293 199 301 231 q 296 246 279 252 q 262 257 236 257 q 226 257 209 256 q 192 255 187 255 q 131 255 101 274 q 63 298 63 351 q 63 397 71 452 q 79 506 87 564 q 95 622 122 644 q 150 667 216 667 l 341 667 q 399 667 431 645 q 470 619 470 563 q 470 491 407 470 q 377 460 286 460 z m 437 562 q 437 602 410 618 q 384 633 341 633 l 216 633 q 163 633 144 619 q 126 605 122 568 q 117 531 109 479 q 96 393 96 351 q 96 320 118 304 q 139 288 208 288 q 276 288 294 283 q 334 272 334 231 q 334 202 311 184 q 288 166 259 166 q 233 166 206 181 q 143 216 126 216 q 98 216 78 196 q 58 176 58 146 q 58 86 131 49 q 191 19 258 19 q 359 19 424 77 q 488 135 488 235 q 488 338 417 388 q 356 431 249 431 l 256 490 q 267 490 296 489 q 324 488 325 488 q 391 488 414 508 q 437 527 437 562 z m 210 396 l 245 397 q 339 397 391 364 q 455 323 455 234 q 455 150 399 101 q 343 52 258 52 q 207 52 156 74 q 92 102 92 147 q 92 161 102 172 q 112 183 126 183 q 139 183 181 158 q 223 132 259 132 q 303 132 336 160 q 369 188 369 231 q 369 306 281 319 q 210 323 140 327 q 129 338 129 350 q 129 407 137 468 q 145 530 160 584 l 176 597 l 216 600 l 341 600 q 373 600 383 596 q 403 588 403 562 q 403 536 378 527 q 352 518 309 518 q 284 518 264 520 q 243 521 227 523 z"}}}
